<svg width="24" height="25" viewBox="0 0 24 25" fill="none" xmlns="http://www.w3.org/2000/svg">
<path d="M9.73204 20.6629C9.34235 20.3518 8.99805 19.9786 8.64505 19.6281C8.57493 19.5586 8.50481 19.4892 8.43468 19.4197C8.24516 19.2319 8.05576 19.044 7.8664 18.8561C7.74802 18.7386 7.62962 18.6211 7.51121 18.5037C7.18284 18.178 6.85452 17.8522 6.52633 17.5263C6.50539 17.5055 6.48446 17.4847 6.46289 17.4633C6.44191 17.4425 6.42093 17.4216 6.39932 17.4002C6.35681 17.358 6.31431 17.3158 6.2718 17.2736C6.25072 17.2526 6.22964 17.2317 6.20792 17.2101C5.86564 16.8703 5.5231 16.5307 5.18045 16.1912C4.82799 15.842 4.47575 15.4925 4.12374 15.1429C3.92634 14.9468 3.72886 14.7509 3.53113 14.5551C3.34538 14.3713 3.15993 14.1871 2.97469 14.0027C2.90668 13.9352 2.83857 13.8677 2.77035 13.8003C2.67725 13.7083 2.58451 13.6159 2.49185 13.5235C2.4648 13.4969 2.43775 13.4704 2.40988 13.443C2.13464 13.1668 2.00517 12.9286 2 12.5363C2.00993 11.8019 2.67908 11.3521 3.16846 10.8657C3.2384 10.796 3.30832 10.7263 3.37824 10.6567C3.56726 10.4684 3.7564 10.2802 3.94559 10.0921C4.06386 9.97454 4.1821 9.85692 4.30033 9.73929C4.62822 9.4131 4.95615 9.08693 5.28421 8.76091C5.30513 8.74011 5.32605 8.71932 5.34761 8.69789C5.36858 8.67705 5.38955 8.65621 5.41116 8.63474C5.45365 8.59251 5.49614 8.55029 5.53862 8.50806C5.5597 8.48712 5.58077 8.46618 5.60248 8.4446C5.94461 8.10458 6.28646 7.7643 6.62821 7.42391C6.97974 7.07377 7.33149 6.72386 7.68347 6.37416C7.88082 6.17807 8.07809 5.98189 8.27511 5.78546C8.46019 5.60094 8.64558 5.41672 8.83116 5.23269C8.8992 5.16513 8.96714 5.09748 9.03497 5.02971C9.12758 4.93722 9.22055 4.84509 9.31361 4.75305C9.34035 4.72617 9.36708 4.6993 9.39463 4.67162C9.67271 4.39819 9.91243 4.26958 10.3073 4.26444C10.7748 4.27162 10.9842 4.44023 11.3081 4.75661C11.3697 4.81612 11.4326 4.87391 11.4959 4.93156C11.8239 5.23498 12.078 5.53964 12.0965 6.00551C12.0651 6.58563 11.6338 6.92388 11.2434 7.31025C11.2037 7.3496 11.1641 7.38896 11.1245 7.42833C11.0178 7.5343 10.9111 7.64016 10.8043 7.74599C10.6923 7.85693 10.5805 7.96799 10.4687 8.07904C10.2573 8.28891 10.0458 8.49868 9.83428 8.70842C9.59331 8.94737 9.35245 9.18643 9.1116 9.4255C8.61651 9.91692 8.12128 10.4082 7.62596 10.8994C7.66795 10.8995 7.66795 10.8995 7.71079 10.8995C9.37016 10.9027 11.0295 10.9062 12.6889 10.9102C12.8882 10.9107 13.0874 10.9112 13.2867 10.9117C13.3462 10.9118 13.3462 10.9118 13.4069 10.912C14.0491 10.9135 14.6914 10.9148 15.3336 10.9159C15.9927 10.9172 16.6517 10.9186 17.3108 10.9204C17.7174 10.9215 18.124 10.9223 18.5306 10.9229C18.8095 10.9233 19.0884 10.924 19.3673 10.9249C19.5282 10.9254 19.6891 10.9258 19.8499 10.9259C19.9974 10.926 20.1448 10.9264 20.2922 10.9271C20.3705 10.9273 20.4488 10.9272 20.527 10.9271C20.9566 10.9298 21.336 10.9518 21.6665 11.2481C21.8963 11.5257 21.9906 11.7709 21.993 12.1263C21.9933 12.1587 21.9937 12.191 21.994 12.2244C21.9946 12.2927 21.995 12.3611 21.9951 12.4294C21.9956 12.5329 21.9975 12.6363 21.9995 12.7398C22.0033 13.1383 21.9945 13.4647 21.7064 13.7709C21.3247 14.1349 20.8897 14.1209 20.3892 14.1213C20.3343 14.1215 20.2794 14.1217 20.2244 14.1219C20.0738 14.1224 19.9233 14.1227 19.7727 14.1229C19.6102 14.1232 19.4477 14.1238 19.2851 14.1243C19.0037 14.1251 18.7223 14.1258 18.4408 14.1264C18.0339 14.1273 17.627 14.1284 17.22 14.1295C16.5598 14.1314 15.8996 14.1331 15.2394 14.1346C14.5981 14.1362 13.9568 14.1378 13.3155 14.1395C13.2562 14.1396 13.2562 14.1396 13.1957 14.1398C12.9973 14.1403 12.799 14.1409 12.6006 14.1414C10.9554 14.1458 9.31018 14.1499 7.66497 14.1539C7.68606 14.1747 7.70715 14.1955 7.72888 14.217C8.24301 14.7243 8.7567 15.232 9.26992 15.7402C9.51812 15.986 9.76647 16.2316 10.0152 16.4769C10.232 16.6908 10.4486 16.905 10.6649 17.1194C10.7793 17.2329 10.8939 17.3462 11.0088 17.4592C11.1171 17.5658 11.2251 17.6728 11.3328 17.78C11.3722 17.8191 11.4117 17.858 11.4513 17.8968C11.7937 18.232 12.0692 18.5442 12.0892 19.0357C12.0916 19.0756 12.0939 19.1156 12.0964 19.1567C12.0271 19.5857 11.759 19.885 11.453 20.1762C11.4194 20.2094 11.3859 20.2427 11.3514 20.2769C10.9194 20.6972 10.3265 21.0193 9.73204 20.6629Z" fill="#063F5C"/>
</svg>
