<svg width="21" height="21" viewBox="0 0 21 21" fill="none" xmlns="http://www.w3.org/2000/svg">
<g opacity="0.48">
<path d="M5.0497 2.50495C5.09816 2.50481 5.14662 2.50467 5.19655 2.50453C5.33049 2.50415 5.46442 2.50423 5.59835 2.50439C5.74303 2.50448 5.8877 2.50415 6.03237 2.50388C6.31558 2.50341 6.59879 2.50335 6.882 2.50343C7.11225 2.5035 7.34249 2.50343 7.57274 2.50328C7.62193 2.50325 7.62193 2.50325 7.67212 2.50321C7.73874 2.50317 7.80536 2.50313 7.87199 2.50308C8.49654 2.50268 9.12108 2.50276 9.74563 2.50299C10.3167 2.50317 10.8877 2.50276 11.4587 2.50207C12.0455 2.50136 12.6322 2.50106 13.2189 2.5012C13.5481 2.50127 13.8774 2.50118 14.2066 2.50066C14.4869 2.50023 14.7672 2.50018 15.0475 2.50062C15.1904 2.50084 15.3333 2.50088 15.4762 2.50044C15.6314 2.49997 15.7865 2.50035 15.9416 2.50081C15.9865 2.50055 16.0314 2.50028 16.0777 2.5C16.4846 2.50255 16.8011 2.57151 17.107 2.8424C17.1381 2.86924 17.1381 2.86924 17.1699 2.89663C17.4605 3.18243 17.4991 3.60567 17.5 3.98905C17.4997 4.04123 17.4993 4.09341 17.4989 4.14559C17.4991 4.20223 17.4993 4.25886 17.4995 4.3155C17.5001 4.46987 17.4997 4.62423 17.4992 4.77861C17.4988 4.94558 17.4992 5.11254 17.4995 5.27951C17.5001 5.60609 17.4998 5.93266 17.4992 6.25923C17.4986 6.63983 17.4987 7.02042 17.4989 7.40102C17.4991 8.08021 17.4985 8.75941 17.4976 9.4386C17.4967 10.0972 17.4965 10.7557 17.4969 11.4143C17.4973 12.1321 17.4974 12.8499 17.4968 13.5677C17.4968 13.6443 17.4967 13.7209 17.4966 13.7975C17.4966 13.8351 17.4966 13.8728 17.4966 13.9116C17.4964 14.1767 17.4965 14.4418 17.4966 14.7069C17.4968 15.0301 17.4966 15.3532 17.4958 15.6764C17.4955 15.8411 17.4953 16.0059 17.4956 16.1707C17.4958 16.3217 17.4956 16.4726 17.4949 16.6236C17.4948 16.6781 17.4948 16.7326 17.495 16.787C17.4971 17.2882 17.4259 17.7219 17.0791 18.1104C16.7903 18.3819 16.4561 18.49 16.0618 18.4974C16.0221 18.4987 16.0221 18.4987 15.9815 18.5C15.5605 18.4941 15.2192 18.2707 14.9024 18.0215C14.834 17.9691 14.7655 17.9167 14.697 17.8645C14.663 17.8384 14.6291 17.8122 14.594 17.7853C14.4448 17.672 14.2924 17.5631 14.1396 17.4544C13.8876 17.2744 13.6386 17.0909 13.3908 16.9055C13.1248 16.7066 12.856 16.5126 12.5835 16.3224C12.3649 16.1692 12.1508 16.0109 11.9374 15.8511C11.6838 15.6613 11.4287 15.4739 11.1699 15.2908C11.1422 15.2711 11.1144 15.2514 11.0858 15.231C11.06 15.2129 11.0342 15.1948 11.0076 15.1761C10.9741 15.1525 10.9741 15.1525 10.9398 15.1284C10.7421 15.0014 10.5653 14.9662 10.3278 14.9902C9.91491 15.1095 9.5351 15.4825 9.19938 15.7338C8.98163 15.8968 8.76225 16.0573 8.54082 16.2155C8.28981 16.3949 8.0414 16.5774 7.79432 16.762C7.45978 17.0119 7.12195 17.257 6.78215 17.5C6.65796 17.589 6.53415 17.6784 6.41031 17.7679C6.29316 17.8524 6.17574 17.9365 6.05826 18.0206C5.99518 18.0659 5.93243 18.1116 5.86974 18.1574C5.46595 18.4463 5.09824 18.5302 4.60302 18.4747C4.24579 18.3979 3.92447 18.1612 3.72139 17.8663C3.51451 17.529 3.49912 17.1899 3.50163 16.8073C3.50146 16.7498 3.50122 16.6923 3.50092 16.6348C3.5003 16.4777 3.50061 16.3206 3.50107 16.1635C3.50141 15.9937 3.50089 15.824 3.50048 15.6542C3.49981 15.322 3.49996 14.9897 3.50039 14.6575C3.50073 14.3875 3.50077 14.1174 3.50061 13.8474C3.50059 13.8089 3.50056 13.7704 3.50054 13.7308C3.50049 13.6526 3.50044 13.5745 3.50039 13.4963C3.49997 12.7639 3.50046 12.0314 3.50126 11.299C3.50193 10.6708 3.50181 10.0426 3.50112 9.41445C3.50032 8.68453 3.50001 7.95461 3.50047 7.22469C3.50052 7.14683 3.50056 7.06897 3.50061 6.99111C3.50063 6.9528 3.50065 6.9145 3.50068 6.87503C3.50081 6.60535 3.50059 6.33568 3.50024 6.066C3.49982 5.73729 3.49993 5.40858 3.50073 5.07987C3.50112 4.91223 3.50128 4.74459 3.50078 4.57694C3.50033 4.42336 3.50058 4.26979 3.50137 4.1162C3.50154 4.06077 3.50146 4.00533 3.50109 3.94989C3.49861 3.53874 3.55597 3.20067 3.8256 2.87229C4.17304 2.53455 4.58563 2.50353 5.0497 2.50495Z" fill="#E6ECEF"/>
<path d="M5.0497 2.50495C5.09816 2.50481 5.14662 2.50467 5.19655 2.50453C5.33049 2.50415 5.46442 2.50423 5.59835 2.50439C5.74303 2.50448 5.8877 2.50415 6.03237 2.50388C6.31558 2.50341 6.59879 2.50335 6.882 2.50343C7.11225 2.5035 7.34249 2.50343 7.57274 2.50328C7.62193 2.50325 7.62193 2.50325 7.67212 2.50321C7.73874 2.50317 7.80536 2.50313 7.87199 2.50308C8.49654 2.50268 9.12108 2.50276 9.74563 2.50299C10.3167 2.50317 10.8877 2.50276 11.4587 2.50207C12.0455 2.50136 12.6322 2.50106 13.2189 2.5012C13.5481 2.50127 13.8774 2.50118 14.2066 2.50066C14.4869 2.50023 14.7672 2.50018 15.0475 2.50062C15.1904 2.50084 15.3333 2.50088 15.4762 2.50044C15.6314 2.49997 15.7865 2.50035 15.9416 2.50081C15.9865 2.50055 16.0314 2.50028 16.0777 2.5C16.4846 2.50255 16.8011 2.57151 17.107 2.8424C17.1381 2.86924 17.1381 2.86924 17.1699 2.89663C17.4605 3.18243 17.4991 3.60567 17.5 3.98905C17.4997 4.04123 17.4993 4.09341 17.4989 4.14559C17.4991 4.20223 17.4993 4.25886 17.4995 4.3155C17.5001 4.46987 17.4997 4.62423 17.4992 4.77861C17.4988 4.94558 17.4992 5.11254 17.4995 5.27951C17.5001 5.60609 17.4998 5.93266 17.4992 6.25923C17.4986 6.63983 17.4987 7.02042 17.4989 7.40102C17.4991 8.08021 17.4985 8.75941 17.4976 9.4386C17.4967 10.0972 17.4965 10.7557 17.4969 11.4143C17.4973 12.1321 17.4974 12.8499 17.4968 13.5677C17.4968 13.6443 17.4967 13.7209 17.4966 13.7975C17.4966 13.8351 17.4966 13.8728 17.4966 13.9116C17.4964 14.1767 17.4965 14.4418 17.4966 14.7069C17.4968 15.0301 17.4966 15.3532 17.4958 15.6764C17.4955 15.8411 17.4953 16.0059 17.4956 16.1707C17.4958 16.3217 17.4956 16.4726 17.4949 16.6236C17.4948 16.6781 17.4948 16.7326 17.495 16.787C17.4971 17.2882 17.4259 17.7219 17.0791 18.1104C16.7903 18.3819 16.4561 18.49 16.0618 18.4974C16.0221 18.4987 16.0221 18.4987 15.9815 18.5C15.5605 18.4941 15.2192 18.2707 14.9024 18.0215C14.834 17.9691 14.7655 17.9167 14.697 17.8645C14.663 17.8384 14.6291 17.8122 14.594 17.7853C14.4448 17.672 14.2924 17.5631 14.1396 17.4544C13.8876 17.2744 13.6386 17.0909 13.3908 16.9055C13.1248 16.7066 12.856 16.5126 12.5835 16.3224C12.3649 16.1692 12.1508 16.0109 11.9374 15.8511C11.6838 15.6613 11.4287 15.4739 11.1699 15.2908C11.1422 15.2711 11.1144 15.2514 11.0858 15.231C11.06 15.2129 11.0342 15.1948 11.0076 15.1761C10.9741 15.1525 10.9741 15.1525 10.9398 15.1284C10.7421 15.0014 10.5653 14.9662 10.3278 14.9902C9.91491 15.1095 9.5351 15.4825 9.19938 15.7338C8.98163 15.8968 8.76225 16.0573 8.54082 16.2155C8.28981 16.3949 8.0414 16.5774 7.79432 16.762C7.45978 17.0119 7.12195 17.257 6.78215 17.5C6.65796 17.589 6.53415 17.6784 6.41031 17.7679C6.29316 17.8524 6.17574 17.9365 6.05826 18.0206C5.99518 18.0659 5.93243 18.1116 5.86974 18.1574C5.46595 18.4463 5.09824 18.5302 4.60302 18.4747C4.24579 18.3979 3.92447 18.1612 3.72139 17.8663C3.51451 17.529 3.49912 17.1899 3.50163 16.8073C3.50146 16.7498 3.50122 16.6923 3.50092 16.6348C3.5003 16.4777 3.50061 16.3206 3.50107 16.1635C3.50141 15.9937 3.50089 15.824 3.50048 15.6542C3.49981 15.322 3.49996 14.9897 3.50039 14.6575C3.50073 14.3875 3.50077 14.1174 3.50061 13.8474C3.50059 13.8089 3.50056 13.7704 3.50054 13.7308C3.50049 13.6526 3.50044 13.5745 3.50039 13.4963C3.49997 12.7639 3.50046 12.0314 3.50126 11.299C3.50193 10.6708 3.50181 10.0426 3.50112 9.41445C3.50032 8.68453 3.50001 7.95461 3.50047 7.22469C3.50052 7.14683 3.50056 7.06897 3.50061 6.99111C3.50063 6.9528 3.50065 6.9145 3.50068 6.87503C3.50081 6.60535 3.50059 6.33568 3.50024 6.066C3.49982 5.73729 3.49993 5.40858 3.50073 5.07987C3.50112 4.91223 3.50128 4.74459 3.50078 4.57694C3.50033 4.42336 3.50058 4.26979 3.50137 4.1162C3.50154 4.06077 3.50146 4.00533 3.50109 3.94989C3.49861 3.53874 3.55597 3.20067 3.8256 2.87229C4.17304 2.53455 4.58563 2.50353 5.0497 2.50495Z" fill="#329EAC"/>
<path d="M5.0497 2.50495C5.09816 2.50481 5.14662 2.50467 5.19655 2.50453C5.33049 2.50415 5.46442 2.50423 5.59835 2.50439C5.74303 2.50448 5.8877 2.50415 6.03237 2.50388C6.31558 2.50341 6.59879 2.50335 6.882 2.50343C7.11225 2.5035 7.34249 2.50343 7.57274 2.50328C7.62193 2.50325 7.62193 2.50325 7.67212 2.50321C7.73874 2.50317 7.80536 2.50313 7.87199 2.50308C8.49654 2.50268 9.12108 2.50276 9.74563 2.50299C10.3167 2.50317 10.8877 2.50276 11.4587 2.50207C12.0455 2.50136 12.6322 2.50106 13.2189 2.5012C13.5481 2.50127 13.8774 2.50118 14.2066 2.50066C14.4869 2.50023 14.7672 2.50018 15.0475 2.50062C15.1904 2.50084 15.3333 2.50088 15.4762 2.50044C15.6314 2.49997 15.7865 2.50035 15.9416 2.50081C15.9865 2.50055 16.0314 2.50028 16.0777 2.5C16.4846 2.50255 16.8011 2.57151 17.107 2.8424C17.1381 2.86924 17.1381 2.86924 17.1699 2.89663C17.4605 3.18243 17.4991 3.60567 17.5 3.98905C17.4997 4.04123 17.4993 4.09341 17.4989 4.14559C17.4991 4.20223 17.4993 4.25886 17.4995 4.3155C17.5001 4.46987 17.4997 4.62423 17.4992 4.77861C17.4988 4.94558 17.4992 5.11254 17.4995 5.27951C17.5001 5.60609 17.4998 5.93266 17.4992 6.25923C17.4986 6.63983 17.4987 7.02042 17.4989 7.40102C17.4991 8.08021 17.4985 8.75941 17.4976 9.4386C17.4967 10.0972 17.4965 10.7557 17.4969 11.4143C17.4973 12.1321 17.4974 12.8499 17.4968 13.5677C17.4968 13.6443 17.4967 13.7209 17.4966 13.7975C17.4966 13.8351 17.4966 13.8728 17.4966 13.9116C17.4964 14.1767 17.4965 14.4418 17.4966 14.7069C17.4968 15.0301 17.4966 15.3532 17.4958 15.6764C17.4955 15.8411 17.4953 16.0059 17.4956 16.1707C17.4958 16.3217 17.4956 16.4726 17.4949 16.6236C17.4948 16.6781 17.4948 16.7326 17.495 16.787C17.4971 17.2882 17.4259 17.7219 17.0791 18.1104C16.7903 18.3819 16.4561 18.49 16.0618 18.4974C16.0221 18.4987 16.0221 18.4987 15.9815 18.5C15.5605 18.4941 15.2192 18.2707 14.9024 18.0215C14.834 17.9691 14.7655 17.9167 14.697 17.8645C14.663 17.8384 14.6291 17.8122 14.594 17.7853C14.4448 17.672 14.2924 17.5631 14.1396 17.4544C13.8876 17.2744 13.6386 17.0909 13.3908 16.9055C13.1248 16.7066 12.856 16.5126 12.5835 16.3224C12.3649 16.1692 12.1508 16.0109 11.9374 15.8511C11.6838 15.6613 11.4287 15.4739 11.1699 15.2908C11.1422 15.2711 11.1144 15.2514 11.0858 15.231C11.06 15.2129 11.0342 15.1948 11.0076 15.1761C10.9741 15.1525 10.9741 15.1525 10.9398 15.1284C10.7421 15.0014 10.5653 14.9662 10.3278 14.9902C9.91491 15.1095 9.5351 15.4825 9.19938 15.7338C8.98163 15.8968 8.76225 16.0573 8.54082 16.2155C8.28981 16.3949 8.0414 16.5774 7.79432 16.762C7.45978 17.0119 7.12195 17.257 6.78215 17.5C6.65796 17.589 6.53415 17.6784 6.41031 17.7679C6.29316 17.8524 6.17574 17.9365 6.05826 18.0206C5.99518 18.0659 5.93243 18.1116 5.86974 18.1574C5.46595 18.4463 5.09824 18.5302 4.60302 18.4747C4.24579 18.3979 3.92447 18.1612 3.72139 17.8663C3.51451 17.529 3.49912 17.1899 3.50163 16.8073C3.50146 16.7498 3.50122 16.6923 3.50092 16.6348C3.5003 16.4777 3.50061 16.3206 3.50107 16.1635C3.50141 15.9937 3.50089 15.824 3.50048 15.6542C3.49981 15.322 3.49996 14.9897 3.50039 14.6575C3.50073 14.3875 3.50077 14.1174 3.50061 13.8474C3.50059 13.8089 3.50056 13.7704 3.50054 13.7308C3.50049 13.6526 3.50044 13.5745 3.50039 13.4963C3.49997 12.7639 3.50046 12.0314 3.50126 11.299C3.50193 10.6708 3.50181 10.0426 3.50112 9.41445C3.50032 8.68453 3.50001 7.95461 3.50047 7.22469C3.50052 7.14683 3.50056 7.06897 3.50061 6.99111C3.50063 6.9528 3.50065 6.9145 3.50068 6.87503C3.50081 6.60535 3.50059 6.33568 3.50024 6.066C3.49982 5.73729 3.49993 5.40858 3.50073 5.07987C3.50112 4.91223 3.50128 4.74459 3.50078 4.57694C3.50033 4.42336 3.50058 4.26979 3.50137 4.1162C3.50154 4.06077 3.50146 4.00533 3.50109 3.94989C3.49861 3.53874 3.55597 3.20067 3.8256 2.87229C4.17304 2.53455 4.58563 2.50353 5.0497 2.50495Z" fill="#3EC5D7"/>
</g>
</svg>
