<svg width="28" height="28" viewBox="0 0 28 28" fill="none" xmlns="http://www.w3.org/2000/svg">
<path d="M24.9814 3.75537C25.5438 3.75537 26.0003 4.21146 26 4.77393V19.5649C25.9999 20.1273 25.5438 20.5835 24.9814 20.5835H11.2652C11.0032 20.5835 10.7517 20.6863 10.5647 20.8698L7.42022 23.9564C6.78762 24.5773 5.71973 24.1291 5.71973 23.2427V21.5835C5.71973 21.0312 5.27201 20.5835 4.71973 20.5835H3.01855C2.45619 20.5835 2.00007 20.1273 2 19.5649V4.77393C2 4.21146 2.45615 3.75537 3.01855 3.75537H24.9814ZM5.61133 15.2095C5.33519 15.2095 5.11133 15.4333 5.11133 15.7095C5.11133 15.9856 5.33519 16.2095 5.61133 16.2095H17.5713C17.8474 16.2095 18.0713 15.9856 18.0713 15.7095C18.0713 15.4333 17.8474 15.2095 17.5713 15.2095H5.61133ZM20.3291 5.1958C20.3236 5.1958 20.3191 5.20012 20.3187 5.20559C20.1533 7.8229 18.0663 9.90891 15.4492 10.0741C15.4438 10.0744 15.4395 10.079 15.4395 10.0845C15.4395 10.09 15.4438 10.0945 15.4492 10.0948C18.0665 10.26 20.1535 12.3468 20.3187 14.9643C20.3191 14.9698 20.3236 14.9741 20.3291 14.9741C20.3346 14.9741 20.3391 14.9698 20.3395 14.9643C20.505 12.347 22.5909 10.2604 25.208 10.0948C25.2135 10.0945 25.2178 10.09 25.2178 10.0845C25.2178 10.079 25.2135 10.0744 25.208 10.0741C22.591 9.90858 20.5052 7.82277 20.3395 5.20559C20.3391 5.20012 20.3346 5.1958 20.3291 5.1958ZM5.11133 12.3491C5.11133 12.6253 5.33519 12.8491 5.61133 12.8491H17.5713C17.8474 12.8491 18.0713 12.6253 18.0713 12.3491C18.0713 12.073 17.8474 11.8491 17.5713 11.8491H5.61133C5.33519 11.8491 5.11133 12.073 5.11133 12.3491ZM5.11133 9.46924C5.11133 9.74538 5.33519 9.96924 5.61133 9.96924H12.7715C13.0476 9.96924 13.2715 9.74538 13.2715 9.46924C13.2715 9.1931 13.0476 8.96924 12.7715 8.96924H5.61133C5.33519 8.96924 5.11133 9.1931 5.11133 9.46924Z" fill="#E6EEF3"/>
</svg>
