<svg width="28" height="29" viewBox="0 0 28 29" fill="none" xmlns="http://www.w3.org/2000/svg">
<path d="M24.9814 3.85767C25.5438 3.85767 26.0003 4.31376 26 4.87622V19.6672C25.9999 20.2296 25.5438 20.6858 24.9814 20.6858H11.2652C11.0032 20.6858 10.7517 20.7886 10.5647 20.9721L7.42022 24.0586C6.78762 24.6796 5.71973 24.2314 5.71973 23.345V21.6858C5.71973 21.1335 5.27201 20.6858 4.71973 20.6858H3.01855C2.45619 20.6858 2.00007 20.2296 2 19.6672V4.87622C2 4.31376 2.45615 3.85767 3.01855 3.85767H24.9814ZM5.61133 15.3118C5.33519 15.3118 5.11133 15.5356 5.11133 15.8118C5.11133 16.0879 5.33519 16.3118 5.61133 16.3118H17.5713C17.8474 16.3118 18.0713 16.0879 18.0713 15.8118C18.0713 15.5356 17.8474 15.3118 17.5713 15.3118H5.61133ZM20.3291 5.2981C20.3236 5.2981 20.3191 5.30241 20.3187 5.30789C20.1533 7.9252 18.0663 10.0112 15.4492 10.1764C15.4438 10.1767 15.4395 10.1813 15.4395 10.1868C15.4395 10.1923 15.4438 10.1968 15.4492 10.1971C18.0665 10.3623 20.1535 12.4491 20.3187 15.0666C20.3191 15.0721 20.3236 15.0764 20.3291 15.0764C20.3346 15.0764 20.3391 15.0721 20.3395 15.0666C20.505 12.4493 22.5909 10.3627 25.208 10.1971C25.2135 10.1968 25.2178 10.1923 25.2178 10.1868C25.2178 10.1813 25.2135 10.1767 25.208 10.1764C22.591 10.0109 20.5052 7.92507 20.3395 5.30789C20.3391 5.30241 20.3346 5.2981 20.3291 5.2981ZM5.11133 12.4514C5.11133 12.7276 5.33519 12.9514 5.61133 12.9514H17.5713C17.8474 12.9514 18.0713 12.7276 18.0713 12.4514C18.0713 12.1753 17.8474 11.9514 17.5713 11.9514H5.61133C5.33519 11.9514 5.11133 12.1753 5.11133 12.4514ZM5.11133 9.57153C5.11133 9.84768 5.33519 10.0715 5.61133 10.0715H12.7715C13.0476 10.0715 13.2715 9.84768 13.2715 9.57153C13.2715 9.29539 13.0476 9.07153 12.7715 9.07153H5.61133C5.33519 9.07153 5.11133 9.29539 5.11133 9.57153Z" fill="#063F5C"/>
</svg>
