<svg width="32" height="33" viewBox="0 0 32 33" fill="none" xmlns="http://www.w3.org/2000/svg">
<path d="M19.3905 2.36655C19.7872 2.67111 20.0095 3.05569 20.0754 3.54962C20.0941 3.97324 20.0234 4.28209 19.776 4.62928C19.4466 4.98263 19.088 5.17396 18.6397 5.34764C17.8292 5.66983 17.2048 6.01948 16.792 6.80818C16.523 7.45023 16.4935 7.99472 16.7189 8.65258C17.125 9.6022 18.018 10.1348 18.9471 10.5123C19.0311 10.5438 19.0311 10.5438 19.1168 10.5759C19.9983 10.9124 20.3213 11.5328 20.6884 12.3491C20.9101 12.8542 21.1092 13.3618 21.268 13.8896C21.2843 13.9433 21.3006 13.997 21.3174 14.0524C21.6684 15.3122 21.6861 16.7059 21.0366 17.8695C20.8359 18.1953 20.6012 18.4684 20.3286 18.7376C20.2865 18.7797 20.2445 18.8218 20.2012 18.8651C19.4966 19.5312 18.586 19.9301 17.6209 20.045C17.652 20.1371 17.652 20.1371 17.6837 20.2312C17.7123 20.3178 17.7409 20.4044 17.7694 20.491C17.7829 20.5307 17.7964 20.5705 17.8103 20.6115C18.1417 21.6246 18.3362 22.6875 18.5707 23.7253C18.8387 24.9113 18.8387 24.9113 19.1148 26.0955C19.1405 26.2046 19.1663 26.3138 19.192 26.4229C19.2278 26.5749 19.2637 26.7269 19.3004 26.8787C19.7125 28.5849 19.7125 28.5849 19.327 29.2576C19.0441 29.6657 18.6658 29.9558 18.1735 30.0679C17.601 30.1244 17.0696 30.073 16.6055 29.7172C15.9985 29.1418 15.8789 28.2349 15.697 27.4622C15.6716 27.3553 15.6461 27.2484 15.6206 27.1416C15.5533 26.8598 15.4866 26.5779 15.4199 26.296C15.3151 25.8533 15.2097 25.4108 15.1043 24.9682C15.0781 24.8583 15.052 24.7484 15.0259 24.6385C14.8777 24.015 14.7274 23.3921 14.5724 22.7702C14.5582 22.7132 14.544 22.6561 14.5294 22.5972C14.4611 22.3236 14.3926 22.0501 14.3236 21.7767C14.2992 21.6793 14.2748 21.5819 14.2504 21.4845C14.2391 21.4402 14.2278 21.3958 14.2162 21.3501C14.1745 21.1835 14.1396 21.0344 14.1396 20.8621C14.0485 20.8621 13.9573 20.8621 13.8633 20.8621C13.8501 20.9325 13.8368 21.0029 13.8232 21.0754C13.7451 21.4594 13.6451 21.8379 13.5464 22.2171C13.5106 22.3549 13.4749 22.4927 13.4393 22.6306C13.3884 22.8277 13.3374 23.0248 13.2863 23.2219C12.8844 24.7743 12.4844 26.3263 12.1305 27.8902C11.7772 29.4336 11.7772 29.4336 11.157 29.8426C10.671 30.1117 10.0486 30.1681 9.51175 30.0283C9.38805 29.9776 9.27935 29.9207 9.16638 29.85C9.10826 29.8141 9.05013 29.7781 8.99025 29.7411C8.58402 29.3797 8.41218 28.7727 8.38232 28.2514C8.38396 27.9256 8.4701 27.6172 8.54732 27.3021C8.56392 27.2327 8.58052 27.1634 8.59762 27.0919C8.6434 26.9006 8.68983 26.7095 8.7364 26.5185C8.77606 26.3555 8.81538 26.1924 8.85471 26.0294C8.98318 25.4969 9.11298 24.9647 9.24302 24.4325C9.28816 24.2477 9.33319 24.0629 9.37822 23.878C9.86808 21.8677 10.366 19.8596 10.8967 17.8593C10.9062 17.8232 10.9158 17.7871 10.9256 17.7499C11.1186 17.0212 11.3157 16.2939 11.527 15.5702C11.5418 15.5186 11.5567 15.4671 11.572 15.414C11.895 14.3235 12.4614 13.3148 12.9816 12.3063C13.4911 11.4533 13.4911 11.4533 13.5871 10.5123C13.5137 10.3393 13.4348 10.1717 13.3503 10.0039C12.8152 8.93894 12.8496 7.59535 13.2143 6.48049C13.4982 5.66599 13.9154 4.96367 14.4712 4.30245C14.506 4.26039 14.5408 4.21833 14.5767 4.17499C15.5114 3.08149 17.8992 1.46226 19.3905 2.36655ZM17.8595 13.9636C17.586 14.2628 17.4587 14.5494 17.3427 14.9327C17.3246 14.99 17.3065 15.0473 17.2878 15.1064C17.25 15.227 17.2129 15.3478 17.1763 15.4687C17.1202 15.6528 17.0617 15.8359 17.0028 16.0191C16.9663 16.137 16.9299 16.2548 16.8937 16.3728C16.8762 16.427 16.8587 16.4812 16.8407 16.537C16.6832 17.0705 16.8057 17.4732 17.0131 17.975C17.6091 17.8831 18.1534 17.4775 18.5074 17.0084C18.9039 16.4145 19.0182 15.8458 18.8804 15.1459C18.7695 14.7237 18.6328 14.3335 18.284 14.053C18.2544 14.0204 18.2247 13.9878 18.1942 13.9543C18.0701 13.8486 17.9821 13.866 17.8595 13.9636Z" fill="#063F5C"/>
<path d="M22.1241 5.59293C22.1621 5.60966 22.2 5.6264 22.239 5.64363C22.8431 5.94372 23.2742 6.42586 23.4978 7.05643C23.7016 7.7399 23.6462 8.44828 23.3249 9.08943C22.9514 9.71287 22.3845 10.1163 21.6791 10.2984C20.902 10.4264 20.1904 10.2363 19.5515 9.78956C19.1146 9.44215 18.7784 8.89367 18.6915 8.34177C18.6353 7.56311 18.7206 6.94276 19.2039 6.30559C19.2482 6.23945 19.2482 6.23945 19.2935 6.17197C19.9813 5.45062 21.1997 5.17434 22.1241 5.59293Z" fill="#063F5C"/>
</svg>
