<svg width="16" height="28" viewBox="0 0 16 28" fill="none" xmlns="http://www.w3.org/2000/svg">
<path d="M11.3905 0.264257C11.7872 0.568812 12.0095 0.953394 12.0754 1.44733C12.0941 1.87094 12.0234 2.17979 11.776 2.52699C11.4466 2.88034 11.088 3.07166 10.6397 3.24534C9.82923 3.56754 9.20485 3.91719 8.79204 4.70589C8.52296 5.34794 8.49351 5.89243 8.71886 6.55029C9.12504 7.4999 10.018 8.03249 10.9471 8.41001C11.0311 8.4415 11.0311 8.4415 11.1168 8.47363C11.9983 8.81013 12.3213 9.43052 12.6884 10.2468C12.9101 10.7519 13.1092 11.2595 13.268 11.7873C13.2843 11.841 13.3006 11.8947 13.3174 11.9501C13.6684 13.2099 13.6861 14.6036 13.0366 15.7672C12.8359 16.093 12.6012 16.3661 12.3286 16.6353C12.2865 16.6774 12.2445 16.7195 12.2012 16.7628C11.4966 17.4289 10.586 17.8278 9.62091 17.9427C9.652 18.0348 9.652 18.0348 9.68372 18.1289C9.71231 18.2155 9.74088 18.3021 9.76942 18.3887C9.78292 18.4284 9.79641 18.4682 9.81032 18.5092C10.1417 19.5223 10.3362 20.5852 10.5707 21.623C10.8387 22.809 10.8387 22.809 11.1148 23.9932C11.1405 24.1023 11.1663 24.2115 11.192 24.3206C11.2278 24.4726 11.2637 24.6246 11.3004 24.7764C11.7125 26.4826 11.7125 26.4826 11.327 27.1553C11.0441 27.5635 10.6658 27.8535 10.1735 27.9656C9.60099 28.0221 9.06962 27.9708 8.60554 27.6149C7.99848 27.0395 7.87886 26.1326 7.69701 25.3599C7.67157 25.253 7.64608 25.1462 7.62056 25.0393C7.55335 24.7575 7.48655 24.4756 7.41987 24.1937C7.31508 23.751 7.20968 23.3085 7.10428 22.8659C7.07811 22.756 7.05198 22.6461 7.02587 22.5362C6.8777 21.9127 6.72737 21.2898 6.57245 20.6679C6.55823 20.6109 6.54401 20.5538 6.52936 20.495C6.46113 20.2213 6.39257 19.9478 6.32361 19.6744C6.2992 19.577 6.27479 19.4796 6.25038 19.3822C6.23909 19.3379 6.22781 19.2935 6.21618 19.2478C6.17452 19.0812 6.13963 18.9321 6.13963 18.7598C6.04846 18.7598 5.95728 18.7598 5.86334 18.7598C5.85009 18.8302 5.83683 18.9006 5.82317 18.9731C5.7451 19.3571 5.64512 19.7356 5.54643 20.1148C5.51058 20.2526 5.47491 20.3904 5.4393 20.5283C5.38837 20.7254 5.33738 20.9225 5.28634 21.1196C4.88439 22.672 4.48443 24.224 4.1305 25.7879C3.77725 27.3313 3.77725 27.3313 3.15698 27.7403C2.67098 28.0094 2.04856 28.0658 1.51175 27.926C1.38805 27.8753 1.27935 27.8184 1.16638 27.7477C1.10826 27.7118 1.05013 27.6758 0.990247 27.6388C0.584019 27.2774 0.412178 26.6704 0.382324 26.1491C0.383956 25.8233 0.470101 25.5149 0.547317 25.1999C0.563917 25.1305 0.580517 25.0611 0.59762 24.9896C0.643403 24.7983 0.68983 24.6072 0.7364 24.4162C0.776058 24.2532 0.815378 24.0901 0.854707 23.9271C0.983175 23.3946 1.11298 22.8624 1.24302 22.3302C1.28816 22.1454 1.33319 21.9606 1.37822 21.7757C1.86808 19.7654 2.36604 17.7573 2.89666 15.757C2.90622 15.7209 2.91578 15.6848 2.92563 15.6476C3.11857 14.9189 3.31571 14.1916 3.52695 13.4679C3.54183 13.4163 3.55671 13.3648 3.57203 13.3117C3.895 12.2212 4.46139 11.2125 4.98162 10.204C5.49114 9.35105 5.49114 9.35105 5.58705 8.41001C5.51365 8.23702 5.43483 8.06945 5.35027 7.90163C4.8152 6.83665 4.84958 5.49306 5.21427 4.3782C5.49819 3.56369 5.91541 2.86138 6.47118 2.20016C6.50602 2.15809 6.54085 2.11603 6.57674 2.0727C7.51143 0.979194 9.89916 -0.640032 11.3905 0.264257ZM9.8595 11.8613C9.58596 12.1605 9.45872 12.4471 9.34268 12.8304C9.32456 12.8877 9.30645 12.945 9.28779 13.0041C9.25005 13.1247 9.21288 13.2455 9.17627 13.3664C9.12024 13.5505 9.06167 13.7336 9.00282 13.9168C8.96629 14.0347 8.92991 14.1525 8.8937 14.2705C8.87621 14.3247 8.85873 14.3789 8.84071 14.4347C8.68317 14.9682 8.80569 15.3709 9.01307 15.8727C9.60907 15.7808 10.1534 15.3752 10.5074 14.9061C10.9039 14.3122 11.0182 13.7435 10.8804 13.0436C10.7695 12.6214 10.6328 12.2312 10.284 11.9507C10.2544 11.9181 10.2247 11.8856 10.1942 11.852C10.0701 11.7463 9.98208 11.7637 9.8595 11.8613Z" fill="#E6EEF3"/>
<path d="M14.1243 3.49051C14.1622 3.50725 14.2001 3.52398 14.2391 3.54122C14.8432 3.8413 15.2743 4.32344 15.498 4.95401C15.7017 5.63748 15.6463 6.34586 15.325 6.98701C14.9515 7.61045 14.3846 8.01386 13.6792 8.19599C12.9022 8.32395 12.1906 8.1339 11.5516 7.68715C11.1147 7.33973 10.7786 6.79125 10.6917 6.23935C10.6355 5.46069 10.7207 4.84035 11.204 4.20317C11.2484 4.13703 11.2484 4.13703 11.2936 4.06955C11.9814 3.3482 13.1998 3.07193 14.1243 3.49051Z" fill="#E6EEF3"/>
</svg>
