<svg width="28" height="28" viewBox="0 0 28 28" fill="none" xmlns="http://www.w3.org/2000/svg">
<path d="M26 9.65947V23.6492C25.9829 23.6894 25.9658 23.7354 25.9544 23.7757C25.6236 25.1953 24.6312 25.9943 23.1996 26C21.8023 26 20.4049 26 19.0076 26C17.8612 26 17.1198 25.2471 17.1141 24.0918C17.1141 22.5227 17.1141 20.9593 17.1141 19.3902C17.1141 18.7465 16.7548 18.3901 16.1103 18.3901C14.7129 18.3901 13.3156 18.3901 11.9182 18.3901C11.2338 18.3901 10.8916 18.735 10.8916 19.419C10.8916 20.9766 10.8916 22.5342 10.8916 24.0918C10.8916 25.2471 10.1445 26 8.9981 26C7.58935 26 6.18631 26 4.77756 26C4.62928 26 4.48099 26 4.3327 25.977C2.91255 25.7529 2.00569 24.6665 2.00569 23.1952C2.00569 18.8672 2.01141 14.5392 2 10.2112C2 9.32611 2.3422 8.71686 3.09505 8.2628C6.3517 6.3086 9.60836 4.34866 12.8479 2.36572C13.6521 1.87142 14.3821 1.88292 15.1806 2.37147C18.3688 4.31992 21.5627 6.25113 24.7624 8.16509C25.3612 8.52719 25.8289 8.95251 25.9943 9.65372L26 9.65947Z" fill="#063F5C"/>
</svg>
