<svg width="24" height="24" viewBox="0 0 24 24" fill="none" xmlns="http://www.w3.org/2000/svg">
<path d="M24 7.65947V21.6492C23.9829 21.6894 23.9658 21.7354 23.9544 21.7757C23.6236 23.1953 22.6312 23.9943 21.1996 24C19.8023 24 18.4049 24 17.0076 24C15.8612 24 15.1198 23.2471 15.1141 22.0918C15.1141 20.5227 15.1141 18.9593 15.1141 17.3902C15.1141 16.7465 14.7548 16.3901 14.1103 16.3901C12.7129 16.3901 11.3156 16.3901 9.91825 16.3901C9.23383 16.3901 8.89164 16.735 8.89164 17.419C8.89164 18.9766 8.89164 20.5342 8.89164 22.0918C8.89164 23.2471 8.14448 24 6.9981 24C5.58935 24 4.18631 24 2.77756 24C2.62928 24 2.48099 24 2.3327 23.977C0.912546 23.7529 0.00569159 22.6665 0.00569159 21.1952C0.00569159 16.8672 0.0114068 12.5392 0 8.21124C0 7.32611 0.342196 6.71686 1.09505 6.2628C4.3517 4.3086 7.60836 2.34866 10.8479 0.365721C11.6521 -0.128576 12.3821 -0.117079 13.1806 0.37147C16.3688 2.31992 19.5627 4.25113 22.7624 6.16509C23.3612 6.52719 23.8289 6.95251 23.9943 7.65372L24 7.65947Z" fill="#E6EEF3"/>
</svg>
