<svg width="28" height="28" viewBox="0 0 28 28" fill="none" xmlns="http://www.w3.org/2000/svg">
<path opacity="0.48" d="M14.1439 25.9949H13.8615C13.3531 25.4762 12.8344 24.9729 12.3414 24.444C10.3283 22.2666 8.49499 19.9556 7.0314 17.3623C6.23028 15.9449 5.56781 14.471 5.22373 12.8688C5.13643 12.4528 5.07995 12.0266 5.00806 11.6055C5.00806 11.1998 5.00806 10.7941 5.00806 10.3884C5.02346 10.3268 5.044 10.2703 5.04913 10.2087C5.12103 9.31509 5.33158 8.45235 5.67051 7.62555C7.20086 3.87157 11.0062 1.58119 15.0323 2.06391C17.8825 2.40799 20.101 3.83049 21.6313 6.25953C22.7611 8.05179 23.1874 10.0186 22.91 12.1293C22.72 13.5467 22.2322 14.8665 21.6108 16.14C20.6248 18.1737 19.3564 20.0224 17.9544 21.789C16.7732 23.2731 15.5151 24.6905 14.1439 26V25.9949ZM14.0104 6.87065C11.7149 6.87578 9.88154 8.71939 9.88154 11.0149C9.88154 13.2796 11.7457 15.1232 14.0309 15.1181C16.2751 15.113 18.129 13.2539 18.1238 11.0098C18.1238 8.72452 16.2751 6.86551 14.0104 6.87065Z" fill="#063F5C"/>
</svg>
