<svg width="24" height="24" viewBox="0 0 24 24" fill="none" xmlns="http://www.w3.org/2000/svg">
<path d="M12.7688 2.75098C13.3564 2.47138 13.8307 2.43281 14.1399 2.60547C14.2979 2.73404 14.3798 2.8795 14.4104 3.08105C14.4159 3.26178 14.3897 3.3623 14.3079 3.48535C14.1501 3.64696 13.9764 3.7465 13.7053 3.85156L13.7004 3.85352C13.0865 4.09758 12.5014 4.40563 12.1223 5.12988L12.1125 5.14844L12.1047 5.16797C11.8679 5.7332 11.8375 6.24872 12.0403 6.84082L12.0461 6.8584L12.054 6.875C12.4254 7.7433 13.2251 8.18947 13.9172 8.4707L13.9299 8.47559C13.9885 8.49755 13.9901 8.49679 14.0481 8.51855V8.51953C14.4728 8.68167 14.634 8.94872 14.8909 9.51953V9.52051C15.0441 9.86949 15.1787 10.212 15.2844 10.5635V10.5645C15.296 10.6027 15.3076 10.6413 15.3196 10.6807C15.545 11.4972 15.5366 12.3359 15.1663 13.0078C15.0509 13.1933 14.9137 13.3553 14.7405 13.5264L14.7385 13.5293C14.7098 13.558 14.6801 13.5857 14.6506 13.6152C14.2328 14.0076 13.688 14.2492 13.0989 14.3193L12.4875 14.3926L12.6838 14.9756L12.7288 15.1094C12.7488 15.17 12.7693 15.2304 12.7893 15.291L12.7903 15.2959L12.8196 15.3818C13.0455 16.0741 13.1757 16.7891 13.3489 17.5557C13.5405 18.4034 13.5401 18.4052 13.7375 19.252L13.7385 19.2529C13.7568 19.3307 13.7749 19.4085 13.7932 19.4863C13.8188 19.5951 13.8448 19.7048 13.8713 19.8145C14.0267 20.4576 14.0787 20.6891 14.0803 20.8291C14.081 20.8857 14.085 20.8956 13.9553 21.123C13.8219 21.3109 13.666 21.4267 13.4749 21.4785C13.1519 21.5071 12.9368 21.4694 12.76 21.3438C12.6368 21.2196 12.5451 21.0485 12.47 20.8174C12.3867 20.5613 12.3441 20.3117 12.2708 20L12.2698 19.998C12.2516 19.9219 12.2333 19.8457 12.2151 19.7695C12.1672 19.5687 12.1201 19.3673 12.0725 19.166C11.9976 18.8494 11.9222 18.5329 11.8469 18.2168C11.8283 18.1384 11.8089 18.0598 11.7903 17.9814C11.6842 17.5351 11.5763 17.088 11.4651 16.6416C11.455 16.6011 11.4452 16.5603 11.4348 16.5186C11.386 16.3227 11.3367 16.1264 11.2874 15.9307C11.27 15.8614 11.253 15.7919 11.2356 15.7227L11.2346 15.7207C11.2267 15.6898 11.2193 15.6588 11.2112 15.627C11.1814 15.5079 11.1711 15.4546 11.1711 15.3994V14.8994H10.0588L9.98267 15.3076C9.97367 15.3554 9.96456 15.4031 9.95532 15.4521C9.90281 15.7104 9.83545 15.9673 9.76392 16.2422C9.73822 16.3409 9.71221 16.4396 9.68677 16.5381C9.65043 16.6787 9.61381 16.8193 9.57739 16.96C9.29053 18.0678 9.00299 19.1833 8.74829 20.3086C8.61402 20.8953 8.56587 21.0921 8.51294 21.1982C8.49523 21.2338 8.49984 21.24 8.28735 21.3809C8.07311 21.4955 7.78303 21.529 7.52173 21.4688C7.47547 21.448 7.43152 21.4252 7.38403 21.3955L7.38208 21.3945L7.30396 21.3457C7.17282 21.2115 7.07871 20.9591 7.05884 20.668C7.06166 20.5132 7.10256 20.3631 7.16235 20.1191L7.16333 20.1162C7.17544 20.0656 7.18602 20.0179 7.19849 19.9658C7.23092 19.8304 7.26392 19.6948 7.29712 19.5586L7.38208 19.208C7.47363 18.8285 7.56659 18.4492 7.65942 18.0693V18.0684C7.69164 17.9364 7.72401 17.8046 7.7561 17.6729C7.93095 16.9553 8.10675 16.2385 8.28638 15.5234L8.83813 13.3828C8.84518 13.3562 8.85139 13.3321 8.85864 13.3047C8.99603 12.7858 9.13624 12.2708 9.2854 11.7598V11.7588C9.29603 11.722 9.3057 11.6844 9.31665 11.6465C9.52784 10.9353 9.89507 10.2775 10.2737 9.54492C10.4443 9.25929 10.5696 9.05373 10.6448 8.83105C10.7208 8.6056 10.7416 8.37241 10.7737 8.05762L10.7874 7.92969L10.7366 7.81152L10.554 7.41895C10.2489 6.81127 10.2534 5.99981 10.4827 5.29199C10.6634 4.77338 10.9292 4.3243 11.2913 3.89355L11.2932 3.89062C11.3164 3.86258 11.3397 3.83445 11.3635 3.80566C11.6527 3.46731 12.1905 3.02624 12.7688 2.75098ZM13.4163 9.91602C13.22 9.92841 13.0806 10.0303 13.0168 10.0811L12.9856 10.1055L12.9592 10.1348C12.697 10.4216 12.5775 10.702 12.4827 11.0137C12.4697 11.0546 12.4559 11.0956 12.4426 11.1377V11.1396C12.4153 11.2268 12.388 11.314 12.3616 11.4014C12.3228 11.5288 12.2825 11.6572 12.2405 11.7881L12.2385 11.793C12.213 11.8753 12.1877 11.9576 12.1624 12.04C12.1499 12.0786 12.1371 12.1175 12.1243 12.1572L12.1213 12.1689C11.9584 12.7207 12.1032 13.1442 12.262 13.5283L12.4114 13.8916L12.8 13.832C13.39 13.741 13.8833 13.3542 14.1897 12.9482L14.2073 12.9248C14.5634 12.3913 14.672 11.8506 14.5481 11.2207L14.5452 11.2051L14.5413 11.1895L14.467 10.9385C14.3829 10.6884 14.248 10.4129 13.9905 10.1875L13.9153 10.1055L13.8918 10.085L13.8079 10.0225C13.712 9.9602 13.5801 9.90576 13.4163 9.91602Z" fill="#F7A717"/>
<path d="M12.7688 2.75098C13.3564 2.47138 13.8307 2.43281 14.1399 2.60547C14.2979 2.73404 14.3798 2.8795 14.4104 3.08105C14.4159 3.26178 14.3897 3.3623 14.3079 3.48535C14.1501 3.64696 13.9764 3.7465 13.7053 3.85156L13.7004 3.85352C13.0865 4.09758 12.5014 4.40563 12.1223 5.12988L12.1125 5.14844L12.1047 5.16797C11.8679 5.7332 11.8375 6.24872 12.0403 6.84082L12.0461 6.8584L12.054 6.875C12.4254 7.7433 13.2251 8.18947 13.9172 8.4707L13.9299 8.47559C13.9885 8.49755 13.9901 8.49679 14.0481 8.51855V8.51953C14.4728 8.68167 14.634 8.94872 14.8909 9.51953V9.52051C15.0441 9.86949 15.1787 10.212 15.2844 10.5635V10.5645C15.296 10.6027 15.3076 10.6413 15.3196 10.6807C15.545 11.4972 15.5366 12.3359 15.1663 13.0078C15.0509 13.1933 14.9137 13.3553 14.7405 13.5264L14.7385 13.5293C14.7098 13.558 14.6801 13.5857 14.6506 13.6152C14.2328 14.0076 13.688 14.2492 13.0989 14.3193L12.4875 14.3926L12.6838 14.9756L12.7288 15.1094C12.7488 15.17 12.7693 15.2304 12.7893 15.291L12.7903 15.2959L12.8196 15.3818C13.0455 16.0741 13.1757 16.7891 13.3489 17.5557C13.5405 18.4034 13.5401 18.4052 13.7375 19.252L13.7385 19.2529C13.7568 19.3307 13.7749 19.4085 13.7932 19.4863C13.8188 19.5951 13.8448 19.7048 13.8713 19.8145C14.0267 20.4576 14.0787 20.6891 14.0803 20.8291C14.081 20.8857 14.085 20.8956 13.9553 21.123C13.8219 21.3109 13.666 21.4267 13.4749 21.4785C13.1519 21.5071 12.9368 21.4694 12.76 21.3438C12.6368 21.2196 12.5451 21.0485 12.47 20.8174C12.3867 20.5613 12.3441 20.3117 12.2708 20L12.2698 19.998C12.2516 19.9219 12.2333 19.8457 12.2151 19.7695C12.1672 19.5687 12.1201 19.3673 12.0725 19.166C11.9976 18.8494 11.9222 18.5329 11.8469 18.2168C11.8283 18.1384 11.8089 18.0598 11.7903 17.9814C11.6842 17.5351 11.5763 17.088 11.4651 16.6416C11.455 16.6011 11.4452 16.5603 11.4348 16.5186C11.386 16.3227 11.3367 16.1264 11.2874 15.9307C11.27 15.8614 11.253 15.7919 11.2356 15.7227L11.2346 15.7207C11.2267 15.6898 11.2193 15.6588 11.2112 15.627C11.1814 15.5079 11.1711 15.4546 11.1711 15.3994V14.8994H10.0588L9.98267 15.3076C9.97367 15.3554 9.96456 15.4031 9.95532 15.4521C9.90281 15.7104 9.83545 15.9673 9.76392 16.2422C9.73822 16.3409 9.71221 16.4396 9.68677 16.5381C9.65043 16.6787 9.61381 16.8193 9.57739 16.96C9.29053 18.0678 9.00299 19.1833 8.74829 20.3086C8.61402 20.8953 8.56587 21.0921 8.51294 21.1982C8.49523 21.2338 8.49984 21.24 8.28735 21.3809C8.07311 21.4955 7.78303 21.529 7.52173 21.4688C7.47547 21.448 7.43152 21.4252 7.38403 21.3955L7.38208 21.3945L7.30396 21.3457C7.17282 21.2115 7.07871 20.9591 7.05884 20.668C7.06166 20.5132 7.10256 20.3631 7.16235 20.1191L7.16333 20.1162C7.17544 20.0656 7.18602 20.0179 7.19849 19.9658C7.23092 19.8304 7.26392 19.6948 7.29712 19.5586L7.38208 19.208C7.47363 18.8285 7.56659 18.4492 7.65942 18.0693V18.0684C7.69164 17.9364 7.72401 17.8046 7.7561 17.6729C7.93095 16.9553 8.10675 16.2385 8.28638 15.5234L8.83813 13.3828C8.84518 13.3562 8.85139 13.3321 8.85864 13.3047C8.99603 12.7858 9.13624 12.2708 9.2854 11.7598V11.7588C9.29603 11.722 9.3057 11.6844 9.31665 11.6465C9.52784 10.9353 9.89507 10.2775 10.2737 9.54492C10.4443 9.25929 10.5696 9.05373 10.6448 8.83105C10.7208 8.6056 10.7416 8.37241 10.7737 8.05762L10.7874 7.92969L10.7366 7.81152L10.554 7.41895C10.2489 6.81127 10.2534 5.99981 10.4827 5.29199C10.6634 4.77338 10.9292 4.3243 11.2913 3.89355L11.2932 3.89062C11.3164 3.86258 11.3397 3.83445 11.3635 3.80566C11.6527 3.46731 12.1905 3.02624 12.7688 2.75098ZM13.4163 9.91602C13.22 9.92841 13.0806 10.0303 13.0168 10.0811L12.9856 10.1055L12.9592 10.1348C12.697 10.4216 12.5775 10.702 12.4827 11.0137C12.4697 11.0546 12.4559 11.0956 12.4426 11.1377V11.1396C12.4153 11.2268 12.388 11.314 12.3616 11.4014C12.3228 11.5288 12.2825 11.6572 12.2405 11.7881L12.2385 11.793C12.213 11.8753 12.1877 11.9576 12.1624 12.04C12.1499 12.0786 12.1371 12.1175 12.1243 12.1572L12.1213 12.1689C11.9584 12.7207 12.1032 13.1442 12.262 13.5283L12.4114 13.8916L12.8 13.832C13.39 13.741 13.8833 13.3542 14.1897 12.9482L14.2073 12.9248C14.5634 12.3913 14.672 11.8506 14.5481 11.2207L14.5452 11.2051L14.5413 11.1895L14.467 10.9385C14.3829 10.6884 14.248 10.4129 13.9905 10.1875L13.9153 10.1055L13.8918 10.085L13.8079 10.0225C13.712 9.9602 13.5801 9.90576 13.4163 9.91602Z" stroke="#FEF2DC"/>
<path d="M12.7688 2.75098C13.3564 2.47138 13.8307 2.43281 14.1399 2.60547C14.2979 2.73404 14.3798 2.8795 14.4104 3.08105C14.4159 3.26178 14.3897 3.3623 14.3079 3.48535C14.1501 3.64696 13.9764 3.7465 13.7053 3.85156L13.7004 3.85352C13.0865 4.09758 12.5014 4.40563 12.1223 5.12988L12.1125 5.14844L12.1047 5.16797C11.8679 5.7332 11.8375 6.24872 12.0403 6.84082L12.0461 6.8584L12.054 6.875C12.4254 7.7433 13.2251 8.18947 13.9172 8.4707L13.9299 8.47559C13.9885 8.49755 13.9901 8.49679 14.0481 8.51855V8.51953C14.4728 8.68167 14.634 8.94872 14.8909 9.51953V9.52051C15.0441 9.86949 15.1787 10.212 15.2844 10.5635V10.5645C15.296 10.6027 15.3076 10.6413 15.3196 10.6807C15.545 11.4972 15.5366 12.3359 15.1663 13.0078C15.0509 13.1933 14.9137 13.3553 14.7405 13.5264L14.7385 13.5293C14.7098 13.558 14.6801 13.5857 14.6506 13.6152C14.2328 14.0076 13.688 14.2492 13.0989 14.3193L12.4875 14.3926L12.6838 14.9756L12.7288 15.1094C12.7488 15.17 12.7693 15.2304 12.7893 15.291L12.7903 15.2959L12.8196 15.3818C13.0455 16.0741 13.1757 16.7891 13.3489 17.5557C13.5405 18.4034 13.5401 18.4052 13.7375 19.252L13.7385 19.2529C13.7568 19.3307 13.7749 19.4085 13.7932 19.4863C13.8188 19.5951 13.8448 19.7048 13.8713 19.8145C14.0267 20.4576 14.0787 20.6891 14.0803 20.8291C14.081 20.8857 14.085 20.8956 13.9553 21.123C13.8219 21.3109 13.666 21.4267 13.4749 21.4785C13.1519 21.5071 12.9368 21.4694 12.76 21.3438C12.6368 21.2196 12.5451 21.0485 12.47 20.8174C12.3867 20.5613 12.3441 20.3117 12.2708 20L12.2698 19.998C12.2516 19.9219 12.2333 19.8457 12.2151 19.7695C12.1672 19.5687 12.1201 19.3673 12.0725 19.166C11.9976 18.8494 11.9222 18.5329 11.8469 18.2168C11.8283 18.1384 11.8089 18.0598 11.7903 17.9814C11.6842 17.5351 11.5763 17.088 11.4651 16.6416C11.455 16.6011 11.4452 16.5603 11.4348 16.5186C11.386 16.3227 11.3367 16.1264 11.2874 15.9307C11.27 15.8614 11.253 15.7919 11.2356 15.7227L11.2346 15.7207C11.2267 15.6898 11.2193 15.6588 11.2112 15.627C11.1814 15.5079 11.1711 15.4546 11.1711 15.3994V14.8994H10.0588L9.98267 15.3076C9.97367 15.3554 9.96456 15.4031 9.95532 15.4521C9.90281 15.7104 9.83545 15.9673 9.76392 16.2422C9.73822 16.3409 9.71221 16.4396 9.68677 16.5381C9.65043 16.6787 9.61381 16.8193 9.57739 16.96C9.29053 18.0678 9.00299 19.1833 8.74829 20.3086C8.61402 20.8953 8.56587 21.0921 8.51294 21.1982C8.49523 21.2338 8.49984 21.24 8.28735 21.3809C8.07311 21.4955 7.78303 21.529 7.52173 21.4688C7.47547 21.448 7.43152 21.4252 7.38403 21.3955L7.38208 21.3945L7.30396 21.3457C7.17282 21.2115 7.07871 20.9591 7.05884 20.668C7.06166 20.5132 7.10256 20.3631 7.16235 20.1191L7.16333 20.1162C7.17544 20.0656 7.18602 20.0179 7.19849 19.9658C7.23092 19.8304 7.26392 19.6948 7.29712 19.5586L7.38208 19.208C7.47363 18.8285 7.56659 18.4492 7.65942 18.0693V18.0684C7.69164 17.9364 7.72401 17.8046 7.7561 17.6729C7.93095 16.9553 8.10675 16.2385 8.28638 15.5234L8.83813 13.3828C8.84518 13.3562 8.85139 13.3321 8.85864 13.3047C8.99603 12.7858 9.13624 12.2708 9.2854 11.7598V11.7588C9.29603 11.722 9.3057 11.6844 9.31665 11.6465C9.52784 10.9353 9.89507 10.2775 10.2737 9.54492C10.4443 9.25929 10.5696 9.05373 10.6448 8.83105C10.7208 8.6056 10.7416 8.37241 10.7737 8.05762L10.7874 7.92969L10.7366 7.81152L10.554 7.41895C10.2489 6.81127 10.2534 5.99981 10.4827 5.29199C10.6634 4.77338 10.9292 4.3243 11.2913 3.89355L11.2932 3.89062C11.3164 3.86258 11.3397 3.83445 11.3635 3.80566C11.6527 3.46731 12.1905 3.02624 12.7688 2.75098ZM13.4163 9.91602C13.22 9.92841 13.0806 10.0303 13.0168 10.0811L12.9856 10.1055L12.9592 10.1348C12.697 10.4216 12.5775 10.702 12.4827 11.0137C12.4697 11.0546 12.4559 11.0956 12.4426 11.1377V11.1396C12.4153 11.2268 12.388 11.314 12.3616 11.4014C12.3228 11.5288 12.2825 11.6572 12.2405 11.7881L12.2385 11.793C12.213 11.8753 12.1877 11.9576 12.1624 12.04C12.1499 12.0786 12.1371 12.1175 12.1243 12.1572L12.1213 12.1689C11.9584 12.7207 12.1032 13.1442 12.262 13.5283L12.4114 13.8916L12.8 13.832C13.39 13.741 13.8833 13.3542 14.1897 12.9482L14.2073 12.9248C14.5634 12.3913 14.672 11.8506 14.5481 11.2207L14.5452 11.2051L14.5413 11.1895L14.467 10.9385C14.3829 10.6884 14.248 10.4129 13.9905 10.1875L13.9153 10.1055L13.8918 10.085L13.8079 10.0225C13.712 9.9602 13.5801 9.90576 13.4163 9.91602Z" stroke="#DE9615"/>
<path d="M12.7688 2.75098C13.3564 2.47138 13.8307 2.43281 14.1399 2.60547C14.2979 2.73404 14.3798 2.8795 14.4104 3.08105C14.4159 3.26178 14.3897 3.3623 14.3079 3.48535C14.1501 3.64696 13.9764 3.7465 13.7053 3.85156L13.7004 3.85352C13.0865 4.09758 12.5014 4.40563 12.1223 5.12988L12.1125 5.14844L12.1047 5.16797C11.8679 5.7332 11.8375 6.24872 12.0403 6.84082L12.0461 6.8584L12.054 6.875C12.4254 7.7433 13.2251 8.18947 13.9172 8.4707L13.9299 8.47559C13.9885 8.49755 13.9901 8.49679 14.0481 8.51855V8.51953C14.4728 8.68167 14.634 8.94872 14.8909 9.51953V9.52051C15.0441 9.86949 15.1787 10.212 15.2844 10.5635V10.5645C15.296 10.6027 15.3076 10.6413 15.3196 10.6807C15.545 11.4972 15.5366 12.3359 15.1663 13.0078C15.0509 13.1933 14.9137 13.3553 14.7405 13.5264L14.7385 13.5293C14.7098 13.558 14.6801 13.5857 14.6506 13.6152C14.2328 14.0076 13.688 14.2492 13.0989 14.3193L12.4875 14.3926L12.6838 14.9756L12.7288 15.1094C12.7488 15.17 12.7693 15.2304 12.7893 15.291L12.7903 15.2959L12.8196 15.3818C13.0455 16.0741 13.1757 16.7891 13.3489 17.5557C13.5405 18.4034 13.5401 18.4052 13.7375 19.252L13.7385 19.2529C13.7568 19.3307 13.7749 19.4085 13.7932 19.4863C13.8188 19.5951 13.8448 19.7048 13.8713 19.8145C14.0267 20.4576 14.0787 20.6891 14.0803 20.8291C14.081 20.8857 14.085 20.8956 13.9553 21.123C13.8219 21.3109 13.666 21.4267 13.4749 21.4785C13.1519 21.5071 12.9368 21.4694 12.76 21.3438C12.6368 21.2196 12.5451 21.0485 12.47 20.8174C12.3867 20.5613 12.3441 20.3117 12.2708 20L12.2698 19.998C12.2516 19.9219 12.2333 19.8457 12.2151 19.7695C12.1672 19.5687 12.1201 19.3673 12.0725 19.166C11.9976 18.8494 11.9222 18.5329 11.8469 18.2168C11.8283 18.1384 11.8089 18.0598 11.7903 17.9814C11.6842 17.5351 11.5763 17.088 11.4651 16.6416C11.455 16.6011 11.4452 16.5603 11.4348 16.5186C11.386 16.3227 11.3367 16.1264 11.2874 15.9307C11.27 15.8614 11.253 15.7919 11.2356 15.7227L11.2346 15.7207C11.2267 15.6898 11.2193 15.6588 11.2112 15.627C11.1814 15.5079 11.1711 15.4546 11.1711 15.3994V14.8994H10.0588L9.98267 15.3076C9.97367 15.3554 9.96456 15.4031 9.95532 15.4521C9.90281 15.7104 9.83545 15.9673 9.76392 16.2422C9.73822 16.3409 9.71221 16.4396 9.68677 16.5381C9.65043 16.6787 9.61381 16.8193 9.57739 16.96C9.29053 18.0678 9.00299 19.1833 8.74829 20.3086C8.61402 20.8953 8.56587 21.0921 8.51294 21.1982C8.49523 21.2338 8.49984 21.24 8.28735 21.3809C8.07311 21.4955 7.78303 21.529 7.52173 21.4688C7.47547 21.448 7.43152 21.4252 7.38403 21.3955L7.38208 21.3945L7.30396 21.3457C7.17282 21.2115 7.07871 20.9591 7.05884 20.668C7.06166 20.5132 7.10256 20.3631 7.16235 20.1191L7.16333 20.1162C7.17544 20.0656 7.18602 20.0179 7.19849 19.9658C7.23092 19.8304 7.26392 19.6948 7.29712 19.5586L7.38208 19.208C7.47363 18.8285 7.56659 18.4492 7.65942 18.0693V18.0684C7.69164 17.9364 7.72401 17.8046 7.7561 17.6729C7.93095 16.9553 8.10675 16.2385 8.28638 15.5234L8.83813 13.3828C8.84518 13.3562 8.85139 13.3321 8.85864 13.3047C8.99603 12.7858 9.13624 12.2708 9.2854 11.7598V11.7588C9.29603 11.722 9.3057 11.6844 9.31665 11.6465C9.52784 10.9353 9.89507 10.2775 10.2737 9.54492C10.4443 9.25929 10.5696 9.05373 10.6448 8.83105C10.7208 8.6056 10.7416 8.37241 10.7737 8.05762L10.7874 7.92969L10.7366 7.81152L10.554 7.41895C10.2489 6.81127 10.2534 5.99981 10.4827 5.29199C10.6634 4.77338 10.9292 4.3243 11.2913 3.89355L11.2932 3.89062C11.3164 3.86258 11.3397 3.83445 11.3635 3.80566C11.6527 3.46731 12.1905 3.02624 12.7688 2.75098ZM13.4163 9.91602C13.22 9.92841 13.0806 10.0303 13.0168 10.0811L12.9856 10.1055L12.9592 10.1348C12.697 10.4216 12.5775 10.702 12.4827 11.0137C12.4697 11.0546 12.4559 11.0956 12.4426 11.1377V11.1396C12.4153 11.2268 12.388 11.314 12.3616 11.4014C12.3228 11.5288 12.2825 11.6572 12.2405 11.7881L12.2385 11.793C12.213 11.8753 12.1877 11.9576 12.1624 12.04C12.1499 12.0786 12.1371 12.1175 12.1243 12.1572L12.1213 12.1689C11.9584 12.7207 12.1032 13.1442 12.262 13.5283L12.4114 13.8916L12.8 13.832C13.39 13.741 13.8833 13.3542 14.1897 12.9482L14.2073 12.9248C14.5634 12.3913 14.672 11.8506 14.5481 11.2207L14.5452 11.2051L14.5413 11.1895L14.467 10.9385C14.3829 10.6884 14.248 10.4129 13.9905 10.1875L13.9153 10.1055L13.8918 10.085L13.8079 10.0225C13.712 9.9602 13.5801 9.90576 13.4163 9.91602Z" stroke="#F7A717"/>
<path d="M14.739 5.22693C15.0975 4.87465 15.7242 4.74735 16.1686 4.94861L16.1725 4.95056C16.1948 4.96037 16.2173 4.96985 16.2399 4.97986C16.5501 5.13555 16.7636 5.3757 16.8796 5.69373C16.9836 6.05297 16.9545 6.41625 16.7927 6.74939C16.6019 7.05895 16.322 7.26247 15.9548 7.36267C15.5546 7.42354 15.1884 7.33125 14.8386 7.09119C14.6271 6.91879 14.4646 6.64912 14.4196 6.39587C14.3882 5.92331 14.4459 5.62216 14.6872 5.30408L14.696 5.29333L14.7038 5.28064C14.7222 5.25316 14.7293 5.2413 14.739 5.22693Z" fill="#F7A717"/>
<path d="M14.739 5.22693C15.0975 4.87465 15.7242 4.74735 16.1686 4.94861L16.1725 4.95056C16.1948 4.96037 16.2173 4.96985 16.2399 4.97986C16.5501 5.13555 16.7636 5.3757 16.8796 5.69373C16.9836 6.05297 16.9545 6.41625 16.7927 6.74939C16.6019 7.05895 16.322 7.26247 15.9548 7.36267C15.5546 7.42354 15.1884 7.33125 14.8386 7.09119C14.6271 6.91879 14.4646 6.64912 14.4196 6.39587C14.3882 5.92331 14.4459 5.62216 14.6872 5.30408L14.696 5.29333L14.7038 5.28064C14.7222 5.25316 14.7293 5.2413 14.739 5.22693Z" stroke="#FEF2DC"/>
<path d="M14.739 5.22693C15.0975 4.87465 15.7242 4.74735 16.1686 4.94861L16.1725 4.95056C16.1948 4.96037 16.2173 4.96985 16.2399 4.97986C16.5501 5.13555 16.7636 5.3757 16.8796 5.69373C16.9836 6.05297 16.9545 6.41625 16.7927 6.74939C16.6019 7.05895 16.322 7.26247 15.9548 7.36267C15.5546 7.42354 15.1884 7.33125 14.8386 7.09119C14.6271 6.91879 14.4646 6.64912 14.4196 6.39587C14.3882 5.92331 14.4459 5.62216 14.6872 5.30408L14.696 5.29333L14.7038 5.28064C14.7222 5.25316 14.7293 5.2413 14.739 5.22693Z" stroke="#DE9615"/>
<path d="M14.739 5.22693C15.0975 4.87465 15.7242 4.74735 16.1686 4.94861L16.1725 4.95056C16.1948 4.96037 16.2173 4.96985 16.2399 4.97986C16.5501 5.13555 16.7636 5.3757 16.8796 5.69373C16.9836 6.05297 16.9545 6.41625 16.7927 6.74939C16.6019 7.05895 16.322 7.26247 15.9548 7.36267C15.5546 7.42354 15.1884 7.33125 14.8386 7.09119C14.6271 6.91879 14.4646 6.64912 14.4196 6.39587C14.3882 5.92331 14.4459 5.62216 14.6872 5.30408L14.696 5.29333L14.7038 5.28064C14.7222 5.25316 14.7293 5.2413 14.739 5.22693Z" stroke="#F7A717"/>
</svg>
