<svg width="28" height="29" viewBox="0 0 28 29" fill="none" xmlns="http://www.w3.org/2000/svg">
<path d="M13.7573 2.02417C13.9117 2.02417 14.0712 2.02417 14.2256 2.02417C14.2513 2.03961 14.2719 2.06019 14.2976 2.07563C14.7659 2.27116 14.9769 2.5902 14.9872 3.10991C14.9872 3.38263 14.9975 3.65536 14.9872 3.92808C14.9769 4.10303 15.0283 4.16992 15.2084 4.2008C18.4502 4.75653 20.915 7.68443 20.9819 11.0652C21.0025 12.048 20.987 13.036 20.987 14.0188C20.987 15.2949 21.2803 16.4887 21.9133 17.595C22.3095 18.2846 22.8189 18.8712 23.4004 19.4063C24.095 20.0495 24.1877 21.0787 23.6422 21.8197C23.2511 22.3445 22.7211 22.5503 22.0882 22.5503C16.6955 22.5503 11.2977 22.5503 5.90501 22.5503C5.84326 22.5503 5.78151 22.5503 5.71976 22.5503C4.87587 22.504 4.21722 21.9586 4.04741 21.1301C3.89819 20.3943 4.15033 19.8025 4.69577 19.3086C6.07482 18.0582 6.86725 16.4887 6.97017 14.6002C7.03192 13.5402 6.98561 12.4699 7.01133 11.4048C7.02677 10.8851 7.04735 10.3602 7.15027 9.85592C7.75231 6.892 9.9238 4.7411 12.8311 4.2008C12.97 4.17507 13.0112 4.11847 13.0061 3.97953C13.0009 3.6605 12.9958 3.33632 13.0061 3.01729C13.0215 2.5902 13.2325 2.29689 13.603 2.11679C13.6596 2.09106 13.711 2.06019 13.7625 2.02932L13.7573 2.02417Z" fill="#063F5C"/>
<path d="M10.3406 23.0391H17.632C17.4571 24.3152 16.1552 25.9875 14.0506 26.0236C12.0232 26.0596 10.567 24.4953 10.3406 23.0391Z" fill="#063F5C"/>
</svg>
