<svg width="28" height="29" viewBox="0 0 28 29" fill="none" xmlns="http://www.w3.org/2000/svg">
<path d="M7.8348 8.07936C7.8348 4.73857 10.6103 2.01896 14.0133 2.02418C17.4056 2.0294 20.1652 4.74901 20.1652 8.07936C20.1652 11.4201 17.3897 14.1398 13.9867 14.1345C10.5944 14.1293 7.8348 11.4097 7.8348 8.07936Z" fill="#063F5C"/>
<path d="M3.00531 24.6722C3.08507 24.1763 3.14356 23.6804 3.24991 23.1897C4.03684 19.5514 7.18989 16.5969 10.9385 15.9861C11.4595 15.9026 11.9913 15.8609 12.5176 15.8504C13.5173 15.8295 14.5222 15.8348 15.5218 15.8504C19.7862 15.8922 23.5347 18.7423 24.6513 22.7878C24.8587 23.529 24.9544 24.2911 24.9969 25.0585C25.0235 25.5074 24.88 25.831 24.4546 26.0242H3.53703C3.29776 25.9093 3.11698 25.7319 3 25.497C3 25.2255 3 24.9541 3 24.6826L3.00531 24.6722Z" fill="#063F5C"/>
</svg>
