<svg width="29" height="28" viewBox="0 0 29 28" fill="none" xmlns="http://www.w3.org/2000/svg">
<g opacity="0.48">
<path d="M8.16817 8.05519C8.16817 4.7144 10.9437 1.99479 14.3467 2.00001C17.739 2.00523 20.4986 4.72484 20.4986 8.05519C20.4986 11.396 17.723 14.1156 14.3201 14.1104C10.9278 14.1051 8.16817 11.3855 8.16817 8.05519Z" fill="#063F5C"/>
<path d="M3.33869 24.648C3.41845 24.1521 3.47694 23.6562 3.58328 23.1656C4.37021 19.5272 7.52326 16.5727 11.2718 15.962C11.7929 15.8785 12.3246 15.8367 12.851 15.8263C13.8506 15.8054 14.8556 15.8106 15.8552 15.8263C20.1195 15.868 23.8681 18.7181 24.9847 22.7636C25.1921 23.5048 25.2878 24.267 25.3303 25.0343C25.3569 25.4832 25.2133 25.8069 24.788 26H3.8704C3.63113 25.8852 3.45035 25.7077 3.33337 25.4728C3.33337 25.2013 3.33337 24.9299 3.33337 24.6585L3.33869 24.648Z" fill="#063F5C"/>
</g>
</svg>
