<svg width="28" height="28" viewBox="0 0 28 28" fill="none" xmlns="http://www.w3.org/2000/svg">
<path d="M13.3612 2.01116C13.7886 2.01116 14.216 2.01116 14.6434 2.01116C14.9454 2.04467 15.2474 2.07818 15.5494 2.11168C16.672 2.22895 17.3274 2.9214 17.3672 4.02709C17.3672 4.2002 17.3957 4.3789 17.4413 4.55201C17.8516 6.16029 19.6295 6.9365 21.1453 6.16587C22.1653 5.64653 23.0315 5.8364 23.7267 6.72989C24.3877 7.5787 24.9234 8.50011 25.3337 9.49411C25.7155 10.4099 25.4249 11.2922 24.5701 11.8228C22.8378 12.9061 22.8378 15.1063 24.5758 16.1897C25.4192 16.7146 25.7155 17.6025 25.3394 18.5016C24.9348 19.4788 24.3877 20.3723 23.7723 21.2323C23.117 22.1369 22.0571 22.3826 21.1111 21.8354C20.6211 21.5506 20.074 21.478 19.5099 21.5785C18.2334 21.8019 17.3843 22.7791 17.3559 24.0635C17.3331 25.0072 16.7005 25.722 15.7546 25.8672C14.6263 26.0403 13.4923 26.0403 12.364 25.8896C11.287 25.7444 10.6773 25.0575 10.6431 23.9909C10.6431 23.8178 10.6146 23.6391 10.569 23.466C10.1644 21.8465 8.3637 21.0759 6.84222 21.8577C5.86208 22.3603 4.96743 22.1704 4.29501 21.3049C3.52002 20.3053 2.88749 19.2275 2.5 18.0213V17.4908C2.64816 16.8486 3.05845 16.4242 3.6112 16.0612C5.09279 15.084 5.09279 12.9229 3.6112 11.9512C3.05845 11.5882 2.64816 11.1694 2.5 10.5216V9.94085C2.91029 8.78491 3.50863 7.72389 4.26082 6.75222C4.97882 5.83082 5.82789 5.64095 6.87641 6.17146C7.38357 6.42834 7.91922 6.52327 8.47767 6.42833C9.75412 6.21055 10.6089 5.22213 10.6431 3.94891C10.6659 2.99958 11.2927 2.27921 12.2329 2.13961C12.6033 2.08376 12.9794 2.04467 13.3555 2L13.3612 2.01116ZM17.6351 14.0844C17.7035 12.1466 16.1193 10.5216 14.0963 10.4434C12.119 10.3653 10.4379 11.94 10.3696 13.928C10.3012 15.8714 11.9081 17.5131 13.9368 17.569C15.9141 17.6248 17.5667 16.0668 17.6351 14.0844Z" fill="#063F5C"/>
</svg>
