<svg width="24" height="24" viewBox="0 0 24 24" fill="none" xmlns="http://www.w3.org/2000/svg">
<path d="M4.96875 2.5H19.0312C19.0837 2.50004 19.1172 2.53956 19.1172 2.58203C19.1169 2.63411 19.0737 2.67188 19.0312 2.67188H18.8359C18.3747 2.67188 17.9957 3.02247 17.9502 3.47168L17.9463 3.53223C17.8446 5.2169 17.3151 6.85113 16.2627 8.12695L16.2607 8.12988C16.235 8.16146 16.2347 8.16175 16.209 8.19336C15.838 8.64728 15.4303 9.06992 14.9883 9.44824L14.9824 9.45312C14.8976 9.52802 14.8204 9.60401 14.749 9.67676C14.6667 9.76061 14.5808 9.84023 14.4893 9.91895L14.4863 9.9209C14.0174 10.3294 13.4068 10.9325 13.3242 11.79L13.3223 11.8027V11.8154C13.2849 12.6244 13.6202 13.1627 14.0674 13.667L14.0742 13.6748C14.3005 13.9198 14.5361 14.1524 14.7939 14.375V14.376C14.8566 14.4317 14.9184 14.4914 14.9834 14.5576C15.0822 14.6582 15.184 14.7517 15.291 14.8428V14.8438C15.6453 15.1506 15.9646 15.4894 16.2539 15.8613L16.2588 15.8682C16.2899 15.9068 16.3215 15.9456 16.3535 15.9854V15.9863C17.3028 17.1738 17.8269 18.7245 17.9277 20.2754C17.9643 20.8358 18.4156 21.3281 19.0273 21.3281C19.0843 21.3284 19.1172 21.3725 19.1172 21.4102C19.1169 21.4622 19.0737 21.5 19.0312 21.5H4.96875C4.91653 21.5 4.88307 21.4612 4.88281 21.4189C4.88281 21.3666 4.92614 21.3281 4.96875 21.3281H5.16406C5.64611 21.3281 6.03725 20.9451 6.05273 20.4668L6.05371 20.4678C6.15537 18.7831 6.68488 17.1489 7.7373 15.873L7.73926 15.8701L7.74023 15.8691L7.74121 15.8682V15.8672H7.74219V15.8662L7.74316 15.8652H7.74414V15.8643H7.74512L7.74609 15.8623V15.8613H7.74707V15.8604L7.74805 15.8594H7.74902V15.8584L7.75 15.8574V15.8564H7.75098V15.8555L7.75195 15.8545H7.75293V15.8535L7.75391 15.8525V15.8516H7.75488V15.8506L7.75586 15.8496H7.75684V15.8486H7.75781L7.75879 15.8467V15.8457H7.75977V15.8447L7.76074 15.8438H7.76172V15.8428L7.7627 15.8418V15.8408H7.76367V15.8398L7.76465 15.8389H7.76562V15.8379L7.7666 15.8369V15.8359H7.76758V15.835H7.76855V15.834L7.76953 15.833H7.77051L7.77148 15.8311V15.8301H7.77246V15.8291L7.77344 15.8281H7.77441V15.8262H7.77539V15.8252H7.77637V15.8242H7.77734V15.8232L7.77832 15.8223L7.7793 15.8213L7.78027 15.8203V15.8193H7.78125V15.8184L7.78223 15.8174H7.7832L7.78418 15.8154V15.8145H7.78516V15.8135L7.78613 15.8125H7.78711V15.8115L7.78809 15.8105V15.8096H7.78906V15.8086L7.79004 15.8076H7.79102V15.8066L7.79199 15.8057L7.79102 15.8047C8.1618 15.3511 8.56998 14.9298 9.01172 14.5518L9.01758 14.5469C9.10236 14.472 9.17965 14.396 9.25098 14.3232C9.33334 14.2394 9.4192 14.1598 9.51074 14.0811L9.51367 14.0791C9.98261 13.6706 10.5932 13.0675 10.6758 12.21L10.6777 12.1973V12.1846C10.7151 11.3756 10.3798 10.8373 9.93262 10.333L9.92578 10.3252C9.69939 10.08 9.46405 9.84674 9.20605 9.62402C9.14337 9.5683 9.08163 9.5086 9.0166 9.44238C8.91749 9.3415 8.81544 9.24765 8.70801 9.15625H8.70898C8.35469 8.84941 8.03543 8.51058 7.74609 8.13867L7.74121 8.13184L7.64551 8.01367H7.64648C6.69719 6.82625 6.17307 5.27554 6.07227 3.72461C6.03568 3.16437 5.58512 2.67214 4.97363 2.67188C4.9166 2.67188 4.8831 2.62845 4.88281 2.59082C4.88281 2.53848 4.92614 2.5 4.96875 2.5ZM12.6074 11.9688C12.3238 11.9688 12.0859 12.198 12.0859 12.4902V15.7578C12.0861 16.334 12.4503 16.8453 12.9922 17.0361V17.0371C13.1082 17.0819 13.2191 17.1257 13.3281 17.1719L13.3311 17.1729L13.4229 17.2109C13.4871 17.2377 13.5511 17.265 13.6152 17.292C13.7185 17.3354 13.822 17.378 13.9248 17.4209C14.0691 17.4811 14.2132 17.5421 14.3574 17.6025L15.3594 18.0205C15.4626 18.0635 15.5662 18.1069 15.6699 18.1504H15.6709L15.8623 18.2305C15.8901 18.2422 15.9176 18.2545 15.9463 18.2666L15.9492 18.2676C16.594 18.5348 17.1904 17.8768 16.8984 17.2646C16.6115 16.6631 16.2126 16.1261 15.7734 15.6592H15.7744C15.7092 15.5896 15.6462 15.5171 15.5811 15.4385L15.5732 15.4287L15.4004 15.2422C15.2232 15.0612 15.0373 14.8979 14.8809 14.7539C14.6696 14.5592 14.4593 14.3621 14.25 14.1641L14.1143 14.0371C13.669 13.6204 13.3364 13.151 13.1768 12.6201L13.1191 12.3887L13.0938 12.3027C13.0188 12.1087 12.8312 11.9688 12.6074 11.9688ZM11.3926 11.9688C11.1563 11.9688 10.943 12.1288 10.8848 12.3662C10.8787 12.3912 10.8735 12.4168 10.8672 12.4424C10.6337 13.3311 10.0313 13.9656 9.24023 14.6484L9.23828 14.6514C9.14733 14.731 9.06421 14.8121 8.9873 14.8916C8.89961 14.9808 8.81202 15.0624 8.71973 15.1396L8.71387 15.1455C8.23335 15.5621 7.69236 16.1565 7.31055 16.8008C7.09029 17.1726 7.13353 17.6095 7.4209 17.8984C7.69397 18.1727 8.10946 18.2364 8.48047 18.083C8.57919 18.0422 8.67815 18.0017 8.77734 17.9609C9.13699 17.8129 9.49601 17.6626 9.85449 17.5127C9.96114 17.4682 10.0681 17.4244 10.1748 17.3799H10.1758C10.2768 17.3376 10.3773 17.2942 10.4775 17.252C10.5405 17.2257 10.6041 17.2001 10.667 17.1738L10.6699 17.1729C10.6956 17.1619 10.7207 17.1499 10.7471 17.1387L10.748 17.1396C10.8009 17.1177 10.855 17.0966 10.9092 17.0762C11.489 16.8571 11.914 16.3105 11.9141 15.6543V12.4902C11.9139 12.2426 11.739 12.029 11.499 11.9795L11.3926 11.9688ZM7.80566 2.67188C6.9739 2.67207 6.23221 3.37498 6.34961 4.27344C6.35708 4.3306 6.36555 4.39444 6.375 4.46582L6.37598 4.47754L6.37891 4.48828C6.38551 4.52493 6.39164 4.56185 6.39844 4.59961L6.39941 4.60449C6.44786 4.86048 6.50946 5.10998 6.57812 5.35352C6.75997 5.99842 7.356 6.40623 7.99414 6.40625H15.9932C16.6413 6.40625 17.2385 5.98728 17.4199 5.33984C17.4909 5.08614 17.555 4.82577 17.6074 4.55566C17.6197 4.49335 17.6201 4.4925 17.6328 4.42773H17.6338L17.6348 4.41797C17.6421 4.37585 17.6492 4.33339 17.6553 4.29199C17.7891 3.37454 17.0071 2.67214 16.1836 2.67188H7.80566Z" fill="#FEF2DC"/>
<path d="M4.96875 2.5H19.0312C19.0837 2.50004 19.1172 2.53956 19.1172 2.58203C19.1169 2.63411 19.0737 2.67188 19.0312 2.67188H18.8359C18.3747 2.67188 17.9957 3.02247 17.9502 3.47168L17.9463 3.53223C17.8446 5.2169 17.3151 6.85113 16.2627 8.12695L16.2607 8.12988C16.235 8.16146 16.2347 8.16175 16.209 8.19336C15.838 8.64728 15.4303 9.06992 14.9883 9.44824L14.9824 9.45312C14.8976 9.52802 14.8204 9.60401 14.749 9.67676C14.6667 9.76061 14.5808 9.84023 14.4893 9.91895L14.4863 9.9209C14.0174 10.3294 13.4068 10.9325 13.3242 11.79L13.3223 11.8027V11.8154C13.2849 12.6244 13.6202 13.1627 14.0674 13.667L14.0742 13.6748C14.3005 13.9198 14.5361 14.1524 14.7939 14.375V14.376C14.8566 14.4317 14.9184 14.4914 14.9834 14.5576C15.0822 14.6582 15.184 14.7517 15.291 14.8428V14.8438C15.6453 15.1506 15.9646 15.4894 16.2539 15.8613L16.2588 15.8682C16.2899 15.9068 16.3215 15.9456 16.3535 15.9854V15.9863C17.3028 17.1738 17.8269 18.7245 17.9277 20.2754C17.9643 20.8358 18.4156 21.3281 19.0273 21.3281C19.0843 21.3284 19.1172 21.3725 19.1172 21.4102C19.1169 21.4622 19.0737 21.5 19.0312 21.5H4.96875C4.91653 21.5 4.88307 21.4612 4.88281 21.4189C4.88281 21.3666 4.92614 21.3281 4.96875 21.3281H5.16406C5.64611 21.3281 6.03725 20.9451 6.05273 20.4668L6.05371 20.4678C6.15537 18.7831 6.68488 17.1489 7.7373 15.873L7.73926 15.8701L7.74023 15.8691L7.74121 15.8682V15.8672H7.74219V15.8662L7.74316 15.8652H7.74414V15.8643H7.74512L7.74609 15.8623V15.8613H7.74707V15.8604L7.74805 15.8594H7.74902V15.8584L7.75 15.8574V15.8564H7.75098V15.8555L7.75195 15.8545H7.75293V15.8535L7.75391 15.8525V15.8516H7.75488V15.8506L7.75586 15.8496H7.75684V15.8486H7.75781L7.75879 15.8467V15.8457H7.75977V15.8447L7.76074 15.8438H7.76172V15.8428L7.7627 15.8418V15.8408H7.76367V15.8398L7.76465 15.8389H7.76562V15.8379L7.7666 15.8369V15.8359H7.76758V15.835H7.76855V15.834L7.76953 15.833H7.77051L7.77148 15.8311V15.8301H7.77246V15.8291L7.77344 15.8281H7.77441V15.8262H7.77539V15.8252H7.77637V15.8242H7.77734V15.8232L7.77832 15.8223L7.7793 15.8213L7.78027 15.8203V15.8193H7.78125V15.8184L7.78223 15.8174H7.7832L7.78418 15.8154V15.8145H7.78516V15.8135L7.78613 15.8125H7.78711V15.8115L7.78809 15.8105V15.8096H7.78906V15.8086L7.79004 15.8076H7.79102V15.8066L7.79199 15.8057L7.79102 15.8047C8.1618 15.3511 8.56998 14.9298 9.01172 14.5518L9.01758 14.5469C9.10236 14.472 9.17965 14.396 9.25098 14.3232C9.33334 14.2394 9.4192 14.1598 9.51074 14.0811L9.51367 14.0791C9.98261 13.6706 10.5932 13.0675 10.6758 12.21L10.6777 12.1973V12.1846C10.7151 11.3756 10.3798 10.8373 9.93262 10.333L9.92578 10.3252C9.69939 10.08 9.46405 9.84674 9.20605 9.62402C9.14337 9.5683 9.08163 9.5086 9.0166 9.44238C8.91749 9.3415 8.81544 9.24765 8.70801 9.15625H8.70898C8.35469 8.84941 8.03543 8.51058 7.74609 8.13867L7.74121 8.13184L7.64551 8.01367H7.64648C6.69719 6.82625 6.17307 5.27554 6.07227 3.72461C6.03568 3.16437 5.58512 2.67214 4.97363 2.67188C4.9166 2.67188 4.8831 2.62845 4.88281 2.59082C4.88281 2.53848 4.92614 2.5 4.96875 2.5ZM12.6074 11.9688C12.3238 11.9688 12.0859 12.198 12.0859 12.4902V15.7578C12.0861 16.334 12.4503 16.8453 12.9922 17.0361V17.0371C13.1082 17.0819 13.2191 17.1257 13.3281 17.1719L13.3311 17.1729L13.4229 17.2109C13.4871 17.2377 13.5511 17.265 13.6152 17.292C13.7185 17.3354 13.822 17.378 13.9248 17.4209C14.0691 17.4811 14.2132 17.5421 14.3574 17.6025L15.3594 18.0205C15.4626 18.0635 15.5662 18.1069 15.6699 18.1504H15.6709L15.8623 18.2305C15.8901 18.2422 15.9176 18.2545 15.9463 18.2666L15.9492 18.2676C16.594 18.5348 17.1904 17.8768 16.8984 17.2646C16.6115 16.6631 16.2126 16.1261 15.7734 15.6592H15.7744C15.7092 15.5896 15.6462 15.5171 15.5811 15.4385L15.5732 15.4287L15.4004 15.2422C15.2232 15.0612 15.0373 14.8979 14.8809 14.7539C14.6696 14.5592 14.4593 14.3621 14.25 14.1641L14.1143 14.0371C13.669 13.6204 13.3364 13.151 13.1768 12.6201L13.1191 12.3887L13.0938 12.3027C13.0188 12.1087 12.8312 11.9688 12.6074 11.9688ZM11.3926 11.9688C11.1563 11.9688 10.943 12.1288 10.8848 12.3662C10.8787 12.3912 10.8735 12.4168 10.8672 12.4424C10.6337 13.3311 10.0313 13.9656 9.24023 14.6484L9.23828 14.6514C9.14733 14.731 9.06421 14.8121 8.9873 14.8916C8.89961 14.9808 8.81202 15.0624 8.71973 15.1396L8.71387 15.1455C8.23335 15.5621 7.69236 16.1565 7.31055 16.8008C7.09029 17.1726 7.13353 17.6095 7.4209 17.8984C7.69397 18.1727 8.10946 18.2364 8.48047 18.083C8.57919 18.0422 8.67815 18.0017 8.77734 17.9609C9.13699 17.8129 9.49601 17.6626 9.85449 17.5127C9.96114 17.4682 10.0681 17.4244 10.1748 17.3799H10.1758C10.2768 17.3376 10.3773 17.2942 10.4775 17.252C10.5405 17.2257 10.6041 17.2001 10.667 17.1738L10.6699 17.1729C10.6956 17.1619 10.7207 17.1499 10.7471 17.1387L10.748 17.1396C10.8009 17.1177 10.855 17.0966 10.9092 17.0762C11.489 16.8571 11.914 16.3105 11.9141 15.6543V12.4902C11.9139 12.2426 11.739 12.029 11.499 11.9795L11.3926 11.9688ZM7.80566 2.67188C6.9739 2.67207 6.23221 3.37498 6.34961 4.27344C6.35708 4.3306 6.36555 4.39444 6.375 4.46582L6.37598 4.47754L6.37891 4.48828C6.38551 4.52493 6.39164 4.56185 6.39844 4.59961L6.39941 4.60449C6.44786 4.86048 6.50946 5.10998 6.57812 5.35352C6.75997 5.99842 7.356 6.40623 7.99414 6.40625H15.9932C16.6413 6.40625 17.2385 5.98728 17.4199 5.33984C17.4909 5.08614 17.555 4.82577 17.6074 4.55566C17.6197 4.49335 17.6201 4.4925 17.6328 4.42773H17.6338L17.6348 4.41797C17.6421 4.37585 17.6492 4.33339 17.6553 4.29199C17.7891 3.37454 17.0071 2.67214 16.1836 2.67188H7.80566Z" fill="#DE9615"/>
<path d="M4.96875 2.5H19.0312C19.0837 2.50004 19.1172 2.53956 19.1172 2.58203C19.1169 2.63411 19.0737 2.67188 19.0312 2.67188H18.8359C18.3747 2.67188 17.9957 3.02247 17.9502 3.47168L17.9463 3.53223C17.8446 5.2169 17.3151 6.85113 16.2627 8.12695L16.2607 8.12988C16.235 8.16146 16.2347 8.16175 16.209 8.19336C15.838 8.64728 15.4303 9.06992 14.9883 9.44824L14.9824 9.45312C14.8976 9.52802 14.8204 9.60401 14.749 9.67676C14.6667 9.76061 14.5808 9.84023 14.4893 9.91895L14.4863 9.9209C14.0174 10.3294 13.4068 10.9325 13.3242 11.79L13.3223 11.8027V11.8154C13.2849 12.6244 13.6202 13.1627 14.0674 13.667L14.0742 13.6748C14.3005 13.9198 14.5361 14.1524 14.7939 14.375V14.376C14.8566 14.4317 14.9184 14.4914 14.9834 14.5576C15.0822 14.6582 15.184 14.7517 15.291 14.8428V14.8438C15.6453 15.1506 15.9646 15.4894 16.2539 15.8613L16.2588 15.8682C16.2899 15.9068 16.3215 15.9456 16.3535 15.9854V15.9863C17.3028 17.1738 17.8269 18.7245 17.9277 20.2754C17.9643 20.8358 18.4156 21.3281 19.0273 21.3281C19.0843 21.3284 19.1172 21.3725 19.1172 21.4102C19.1169 21.4622 19.0737 21.5 19.0312 21.5H4.96875C4.91653 21.5 4.88307 21.4612 4.88281 21.4189C4.88281 21.3666 4.92614 21.3281 4.96875 21.3281H5.16406C5.64611 21.3281 6.03725 20.9451 6.05273 20.4668L6.05371 20.4678C6.15537 18.7831 6.68488 17.1489 7.7373 15.873L7.73926 15.8701L7.74023 15.8691L7.74121 15.8682V15.8672H7.74219V15.8662L7.74316 15.8652H7.74414V15.8643H7.74512L7.74609 15.8623V15.8613H7.74707V15.8604L7.74805 15.8594H7.74902V15.8584L7.75 15.8574V15.8564H7.75098V15.8555L7.75195 15.8545H7.75293V15.8535L7.75391 15.8525V15.8516H7.75488V15.8506L7.75586 15.8496H7.75684V15.8486H7.75781L7.75879 15.8467V15.8457H7.75977V15.8447L7.76074 15.8438H7.76172V15.8428L7.7627 15.8418V15.8408H7.76367V15.8398L7.76465 15.8389H7.76562V15.8379L7.7666 15.8369V15.8359H7.76758V15.835H7.76855V15.834L7.76953 15.833H7.77051L7.77148 15.8311V15.8301H7.77246V15.8291L7.77344 15.8281H7.77441V15.8262H7.77539V15.8252H7.77637V15.8242H7.77734V15.8232L7.77832 15.8223L7.7793 15.8213L7.78027 15.8203V15.8193H7.78125V15.8184L7.78223 15.8174H7.7832L7.78418 15.8154V15.8145H7.78516V15.8135L7.78613 15.8125H7.78711V15.8115L7.78809 15.8105V15.8096H7.78906V15.8086L7.79004 15.8076H7.79102V15.8066L7.79199 15.8057L7.79102 15.8047C8.1618 15.3511 8.56998 14.9298 9.01172 14.5518L9.01758 14.5469C9.10236 14.472 9.17965 14.396 9.25098 14.3232C9.33334 14.2394 9.4192 14.1598 9.51074 14.0811L9.51367 14.0791C9.98261 13.6706 10.5932 13.0675 10.6758 12.21L10.6777 12.1973V12.1846C10.7151 11.3756 10.3798 10.8373 9.93262 10.333L9.92578 10.3252C9.69939 10.08 9.46405 9.84674 9.20605 9.62402C9.14337 9.5683 9.08163 9.5086 9.0166 9.44238C8.91749 9.3415 8.81544 9.24765 8.70801 9.15625H8.70898C8.35469 8.84941 8.03543 8.51058 7.74609 8.13867L7.74121 8.13184L7.64551 8.01367H7.64648C6.69719 6.82625 6.17307 5.27554 6.07227 3.72461C6.03568 3.16437 5.58512 2.67214 4.97363 2.67188C4.9166 2.67188 4.8831 2.62845 4.88281 2.59082C4.88281 2.53848 4.92614 2.5 4.96875 2.5ZM12.6074 11.9688C12.3238 11.9688 12.0859 12.198 12.0859 12.4902V15.7578C12.0861 16.334 12.4503 16.8453 12.9922 17.0361V17.0371C13.1082 17.0819 13.2191 17.1257 13.3281 17.1719L13.3311 17.1729L13.4229 17.2109C13.4871 17.2377 13.5511 17.265 13.6152 17.292C13.7185 17.3354 13.822 17.378 13.9248 17.4209C14.0691 17.4811 14.2132 17.5421 14.3574 17.6025L15.3594 18.0205C15.4626 18.0635 15.5662 18.1069 15.6699 18.1504H15.6709L15.8623 18.2305C15.8901 18.2422 15.9176 18.2545 15.9463 18.2666L15.9492 18.2676C16.594 18.5348 17.1904 17.8768 16.8984 17.2646C16.6115 16.6631 16.2126 16.1261 15.7734 15.6592H15.7744C15.7092 15.5896 15.6462 15.5171 15.5811 15.4385L15.5732 15.4287L15.4004 15.2422C15.2232 15.0612 15.0373 14.8979 14.8809 14.7539C14.6696 14.5592 14.4593 14.3621 14.25 14.1641L14.1143 14.0371C13.669 13.6204 13.3364 13.151 13.1768 12.6201L13.1191 12.3887L13.0938 12.3027C13.0188 12.1087 12.8312 11.9688 12.6074 11.9688ZM11.3926 11.9688C11.1563 11.9688 10.943 12.1288 10.8848 12.3662C10.8787 12.3912 10.8735 12.4168 10.8672 12.4424C10.6337 13.3311 10.0313 13.9656 9.24023 14.6484L9.23828 14.6514C9.14733 14.731 9.06421 14.8121 8.9873 14.8916C8.89961 14.9808 8.81202 15.0624 8.71973 15.1396L8.71387 15.1455C8.23335 15.5621 7.69236 16.1565 7.31055 16.8008C7.09029 17.1726 7.13353 17.6095 7.4209 17.8984C7.69397 18.1727 8.10946 18.2364 8.48047 18.083C8.57919 18.0422 8.67815 18.0017 8.77734 17.9609C9.13699 17.8129 9.49601 17.6626 9.85449 17.5127C9.96114 17.4682 10.0681 17.4244 10.1748 17.3799H10.1758C10.2768 17.3376 10.3773 17.2942 10.4775 17.252C10.5405 17.2257 10.6041 17.2001 10.667 17.1738L10.6699 17.1729C10.6956 17.1619 10.7207 17.1499 10.7471 17.1387L10.748 17.1396C10.8009 17.1177 10.855 17.0966 10.9092 17.0762C11.489 16.8571 11.914 16.3105 11.9141 15.6543V12.4902C11.9139 12.2426 11.739 12.029 11.499 11.9795L11.3926 11.9688ZM7.80566 2.67188C6.9739 2.67207 6.23221 3.37498 6.34961 4.27344C6.35708 4.3306 6.36555 4.39444 6.375 4.46582L6.37598 4.47754L6.37891 4.48828C6.38551 4.52493 6.39164 4.56185 6.39844 4.59961L6.39941 4.60449C6.44786 4.86048 6.50946 5.10998 6.57812 5.35352C6.75997 5.99842 7.356 6.40623 7.99414 6.40625H15.9932C16.6413 6.40625 17.2385 5.98728 17.4199 5.33984C17.4909 5.08614 17.555 4.82577 17.6074 4.55566C17.6197 4.49335 17.6201 4.4925 17.6328 4.42773H17.6338L17.6348 4.41797C17.6421 4.37585 17.6492 4.33339 17.6553 4.29199C17.7891 3.37454 17.0071 2.67214 16.1836 2.67188H7.80566Z" fill="#F7A717"/>
<path d="M4.96875 2.5H19.0312C19.0837 2.50004 19.1172 2.53956 19.1172 2.58203C19.1169 2.63411 19.0737 2.67188 19.0312 2.67188H18.8359C18.3747 2.67188 17.9957 3.02247 17.9502 3.47168L17.9463 3.53223C17.8446 5.2169 17.3151 6.85113 16.2627 8.12695L16.2607 8.12988C16.235 8.16146 16.2347 8.16175 16.209 8.19336C15.838 8.64728 15.4303 9.06992 14.9883 9.44824L14.9824 9.45312C14.8976 9.52802 14.8204 9.60401 14.749 9.67676C14.6667 9.76061 14.5808 9.84023 14.4893 9.91895L14.4863 9.9209C14.0174 10.3294 13.4068 10.9325 13.3242 11.79L13.3223 11.8027V11.8154C13.2849 12.6244 13.6202 13.1627 14.0674 13.667L14.0742 13.6748C14.3005 13.9198 14.5361 14.1524 14.7939 14.375V14.376C14.8566 14.4317 14.9184 14.4914 14.9834 14.5576C15.0822 14.6582 15.184 14.7517 15.291 14.8428V14.8438C15.6453 15.1506 15.9646 15.4894 16.2539 15.8613L16.2588 15.8682C16.2899 15.9068 16.3215 15.9456 16.3535 15.9854V15.9863C17.3028 17.1738 17.8269 18.7245 17.9277 20.2754C17.9643 20.8358 18.4156 21.3281 19.0273 21.3281C19.0843 21.3284 19.1172 21.3725 19.1172 21.4102C19.1169 21.4622 19.0737 21.5 19.0312 21.5H4.96875C4.91653 21.5 4.88307 21.4612 4.88281 21.4189C4.88281 21.3666 4.92614 21.3281 4.96875 21.3281H5.16406C5.64611 21.3281 6.03725 20.9451 6.05273 20.4668L6.05371 20.4678C6.15537 18.7831 6.68488 17.1489 7.7373 15.873L7.73926 15.8701L7.74023 15.8691L7.74121 15.8682V15.8672H7.74219V15.8662L7.74316 15.8652H7.74414V15.8643H7.74512L7.74609 15.8623V15.8613H7.74707V15.8604L7.74805 15.8594H7.74902V15.8584L7.75 15.8574V15.8564H7.75098V15.8555L7.75195 15.8545H7.75293V15.8535L7.75391 15.8525V15.8516H7.75488V15.8506L7.75586 15.8496H7.75684V15.8486H7.75781L7.75879 15.8467V15.8457H7.75977V15.8447L7.76074 15.8438H7.76172V15.8428L7.7627 15.8418V15.8408H7.76367V15.8398L7.76465 15.8389H7.76562V15.8379L7.7666 15.8369V15.8359H7.76758V15.835H7.76855V15.834L7.76953 15.833H7.77051L7.77148 15.8311V15.8301H7.77246V15.8291L7.77344 15.8281H7.77441V15.8262H7.77539V15.8252H7.77637V15.8242H7.77734V15.8232L7.77832 15.8223L7.7793 15.8213L7.78027 15.8203V15.8193H7.78125V15.8184L7.78223 15.8174H7.7832L7.78418 15.8154V15.8145H7.78516V15.8135L7.78613 15.8125H7.78711V15.8115L7.78809 15.8105V15.8096H7.78906V15.8086L7.79004 15.8076H7.79102V15.8066L7.79199 15.8057L7.79102 15.8047C8.1618 15.3511 8.56998 14.9298 9.01172 14.5518L9.01758 14.5469C9.10236 14.472 9.17965 14.396 9.25098 14.3232C9.33334 14.2394 9.4192 14.1598 9.51074 14.0811L9.51367 14.0791C9.98261 13.6706 10.5932 13.0675 10.6758 12.21L10.6777 12.1973V12.1846C10.7151 11.3756 10.3798 10.8373 9.93262 10.333L9.92578 10.3252C9.69939 10.08 9.46405 9.84674 9.20605 9.62402C9.14337 9.5683 9.08163 9.5086 9.0166 9.44238C8.91749 9.3415 8.81544 9.24765 8.70801 9.15625H8.70898C8.35469 8.84941 8.03543 8.51058 7.74609 8.13867L7.74121 8.13184L7.64551 8.01367H7.64648C6.69719 6.82625 6.17307 5.27554 6.07227 3.72461C6.03568 3.16437 5.58512 2.67214 4.97363 2.67188C4.9166 2.67188 4.8831 2.62845 4.88281 2.59082C4.88281 2.53848 4.92614 2.5 4.96875 2.5ZM12.6074 11.9688C12.3238 11.9688 12.0859 12.198 12.0859 12.4902V15.7578C12.0861 16.334 12.4503 16.8453 12.9922 17.0361V17.0371C13.1082 17.0819 13.2191 17.1257 13.3281 17.1719L13.3311 17.1729L13.4229 17.2109C13.4871 17.2377 13.5511 17.265 13.6152 17.292C13.7185 17.3354 13.822 17.378 13.9248 17.4209C14.0691 17.4811 14.2132 17.5421 14.3574 17.6025L15.3594 18.0205C15.4626 18.0635 15.5662 18.1069 15.6699 18.1504H15.6709L15.8623 18.2305C15.8901 18.2422 15.9176 18.2545 15.9463 18.2666L15.9492 18.2676C16.594 18.5348 17.1904 17.8768 16.8984 17.2646C16.6115 16.6631 16.2126 16.1261 15.7734 15.6592H15.7744C15.7092 15.5896 15.6462 15.5171 15.5811 15.4385L15.5732 15.4287L15.4004 15.2422C15.2232 15.0612 15.0373 14.8979 14.8809 14.7539C14.6696 14.5592 14.4593 14.3621 14.25 14.1641L14.1143 14.0371C13.669 13.6204 13.3364 13.151 13.1768 12.6201L13.1191 12.3887L13.0938 12.3027C13.0188 12.1087 12.8312 11.9688 12.6074 11.9688ZM11.3926 11.9688C11.1563 11.9688 10.943 12.1288 10.8848 12.3662C10.8787 12.3912 10.8735 12.4168 10.8672 12.4424C10.6337 13.3311 10.0313 13.9656 9.24023 14.6484L9.23828 14.6514C9.14733 14.731 9.06421 14.8121 8.9873 14.8916C8.89961 14.9808 8.81202 15.0624 8.71973 15.1396L8.71387 15.1455C8.23335 15.5621 7.69236 16.1565 7.31055 16.8008C7.09029 17.1726 7.13353 17.6095 7.4209 17.8984C7.69397 18.1727 8.10946 18.2364 8.48047 18.083C8.57919 18.0422 8.67815 18.0017 8.77734 17.9609C9.13699 17.8129 9.49601 17.6626 9.85449 17.5127C9.96114 17.4682 10.0681 17.4244 10.1748 17.3799H10.1758C10.2768 17.3376 10.3773 17.2942 10.4775 17.252C10.5405 17.2257 10.6041 17.2001 10.667 17.1738L10.6699 17.1729C10.6956 17.1619 10.7207 17.1499 10.7471 17.1387L10.748 17.1396C10.8009 17.1177 10.855 17.0966 10.9092 17.0762C11.489 16.8571 11.914 16.3105 11.9141 15.6543V12.4902C11.9139 12.2426 11.739 12.029 11.499 11.9795L11.3926 11.9688ZM7.80566 2.67188C6.9739 2.67207 6.23221 3.37498 6.34961 4.27344C6.35708 4.3306 6.36555 4.39444 6.375 4.46582L6.37598 4.47754L6.37891 4.48828C6.38551 4.52493 6.39164 4.56185 6.39844 4.59961L6.39941 4.60449C6.44786 4.86048 6.50946 5.10998 6.57812 5.35352C6.75997 5.99842 7.356 6.40623 7.99414 6.40625H15.9932C16.6413 6.40625 17.2385 5.98728 17.4199 5.33984C17.4909 5.08614 17.555 4.82577 17.6074 4.55566C17.6197 4.49335 17.6201 4.4925 17.6328 4.42773H17.6338L17.6348 4.41797C17.6421 4.37585 17.6492 4.33339 17.6553 4.29199C17.7891 3.37454 17.0071 2.67214 16.1836 2.67188H7.80566Z" stroke="#FEF2DC"/>
<path d="M4.96875 2.5H19.0312C19.0837 2.50004 19.1172 2.53956 19.1172 2.58203C19.1169 2.63411 19.0737 2.67188 19.0312 2.67188H18.8359C18.3747 2.67188 17.9957 3.02247 17.9502 3.47168L17.9463 3.53223C17.8446 5.2169 17.3151 6.85113 16.2627 8.12695L16.2607 8.12988C16.235 8.16146 16.2347 8.16175 16.209 8.19336C15.838 8.64728 15.4303 9.06992 14.9883 9.44824L14.9824 9.45312C14.8976 9.52802 14.8204 9.60401 14.749 9.67676C14.6667 9.76061 14.5808 9.84023 14.4893 9.91895L14.4863 9.9209C14.0174 10.3294 13.4068 10.9325 13.3242 11.79L13.3223 11.8027V11.8154C13.2849 12.6244 13.6202 13.1627 14.0674 13.667L14.0742 13.6748C14.3005 13.9198 14.5361 14.1524 14.7939 14.375V14.376C14.8566 14.4317 14.9184 14.4914 14.9834 14.5576C15.0822 14.6582 15.184 14.7517 15.291 14.8428V14.8438C15.6453 15.1506 15.9646 15.4894 16.2539 15.8613L16.2588 15.8682C16.2899 15.9068 16.3215 15.9456 16.3535 15.9854V15.9863C17.3028 17.1738 17.8269 18.7245 17.9277 20.2754C17.9643 20.8358 18.4156 21.3281 19.0273 21.3281C19.0843 21.3284 19.1172 21.3725 19.1172 21.4102C19.1169 21.4622 19.0737 21.5 19.0312 21.5H4.96875C4.91653 21.5 4.88307 21.4612 4.88281 21.4189C4.88281 21.3666 4.92614 21.3281 4.96875 21.3281H5.16406C5.64611 21.3281 6.03725 20.9451 6.05273 20.4668L6.05371 20.4678C6.15537 18.7831 6.68488 17.1489 7.7373 15.873L7.73926 15.8701L7.74023 15.8691L7.74121 15.8682V15.8672H7.74219V15.8662L7.74316 15.8652H7.74414V15.8643H7.74512L7.74609 15.8623V15.8613H7.74707V15.8604L7.74805 15.8594H7.74902V15.8584L7.75 15.8574V15.8564H7.75098V15.8555L7.75195 15.8545H7.75293V15.8535L7.75391 15.8525V15.8516H7.75488V15.8506L7.75586 15.8496H7.75684V15.8486H7.75781L7.75879 15.8467V15.8457H7.75977V15.8447L7.76074 15.8438H7.76172V15.8428L7.7627 15.8418V15.8408H7.76367V15.8398L7.76465 15.8389H7.76562V15.8379L7.7666 15.8369V15.8359H7.76758V15.835H7.76855V15.834L7.76953 15.833H7.77051L7.77148 15.8311V15.8301H7.77246V15.8291L7.77344 15.8281H7.77441V15.8262H7.77539V15.8252H7.77637V15.8242H7.77734V15.8232L7.77832 15.8223L7.7793 15.8213L7.78027 15.8203V15.8193H7.78125V15.8184L7.78223 15.8174H7.7832L7.78418 15.8154V15.8145H7.78516V15.8135L7.78613 15.8125H7.78711V15.8115L7.78809 15.8105V15.8096H7.78906V15.8086L7.79004 15.8076H7.79102V15.8066L7.79199 15.8057L7.79102 15.8047C8.1618 15.3511 8.56998 14.9298 9.01172 14.5518L9.01758 14.5469C9.10236 14.472 9.17965 14.396 9.25098 14.3232C9.33334 14.2394 9.4192 14.1598 9.51074 14.0811L9.51367 14.0791C9.98261 13.6706 10.5932 13.0675 10.6758 12.21L10.6777 12.1973V12.1846C10.7151 11.3756 10.3798 10.8373 9.93262 10.333L9.92578 10.3252C9.69939 10.08 9.46405 9.84674 9.20605 9.62402C9.14337 9.5683 9.08163 9.5086 9.0166 9.44238C8.91749 9.3415 8.81544 9.24765 8.70801 9.15625H8.70898C8.35469 8.84941 8.03543 8.51058 7.74609 8.13867L7.74121 8.13184L7.64551 8.01367H7.64648C6.69719 6.82625 6.17307 5.27554 6.07227 3.72461C6.03568 3.16437 5.58512 2.67214 4.97363 2.67188C4.9166 2.67188 4.8831 2.62845 4.88281 2.59082C4.88281 2.53848 4.92614 2.5 4.96875 2.5ZM12.6074 11.9688C12.3238 11.9688 12.0859 12.198 12.0859 12.4902V15.7578C12.0861 16.334 12.4503 16.8453 12.9922 17.0361V17.0371C13.1082 17.0819 13.2191 17.1257 13.3281 17.1719L13.3311 17.1729L13.4229 17.2109C13.4871 17.2377 13.5511 17.265 13.6152 17.292C13.7185 17.3354 13.822 17.378 13.9248 17.4209C14.0691 17.4811 14.2132 17.5421 14.3574 17.6025L15.3594 18.0205C15.4626 18.0635 15.5662 18.1069 15.6699 18.1504H15.6709L15.8623 18.2305C15.8901 18.2422 15.9176 18.2545 15.9463 18.2666L15.9492 18.2676C16.594 18.5348 17.1904 17.8768 16.8984 17.2646C16.6115 16.6631 16.2126 16.1261 15.7734 15.6592H15.7744C15.7092 15.5896 15.6462 15.5171 15.5811 15.4385L15.5732 15.4287L15.4004 15.2422C15.2232 15.0612 15.0373 14.8979 14.8809 14.7539C14.6696 14.5592 14.4593 14.3621 14.25 14.1641L14.1143 14.0371C13.669 13.6204 13.3364 13.151 13.1768 12.6201L13.1191 12.3887L13.0938 12.3027C13.0188 12.1087 12.8312 11.9688 12.6074 11.9688ZM11.3926 11.9688C11.1563 11.9688 10.943 12.1288 10.8848 12.3662C10.8787 12.3912 10.8735 12.4168 10.8672 12.4424C10.6337 13.3311 10.0313 13.9656 9.24023 14.6484L9.23828 14.6514C9.14733 14.731 9.06421 14.8121 8.9873 14.8916C8.89961 14.9808 8.81202 15.0624 8.71973 15.1396L8.71387 15.1455C8.23335 15.5621 7.69236 16.1565 7.31055 16.8008C7.09029 17.1726 7.13353 17.6095 7.4209 17.8984C7.69397 18.1727 8.10946 18.2364 8.48047 18.083C8.57919 18.0422 8.67815 18.0017 8.77734 17.9609C9.13699 17.8129 9.49601 17.6626 9.85449 17.5127C9.96114 17.4682 10.0681 17.4244 10.1748 17.3799H10.1758C10.2768 17.3376 10.3773 17.2942 10.4775 17.252C10.5405 17.2257 10.6041 17.2001 10.667 17.1738L10.6699 17.1729C10.6956 17.1619 10.7207 17.1499 10.7471 17.1387L10.748 17.1396C10.8009 17.1177 10.855 17.0966 10.9092 17.0762C11.489 16.8571 11.914 16.3105 11.9141 15.6543V12.4902C11.9139 12.2426 11.739 12.029 11.499 11.9795L11.3926 11.9688ZM7.80566 2.67188C6.9739 2.67207 6.23221 3.37498 6.34961 4.27344C6.35708 4.3306 6.36555 4.39444 6.375 4.46582L6.37598 4.47754L6.37891 4.48828C6.38551 4.52493 6.39164 4.56185 6.39844 4.59961L6.39941 4.60449C6.44786 4.86048 6.50946 5.10998 6.57812 5.35352C6.75997 5.99842 7.356 6.40623 7.99414 6.40625H15.9932C16.6413 6.40625 17.2385 5.98728 17.4199 5.33984C17.4909 5.08614 17.555 4.82577 17.6074 4.55566C17.6197 4.49335 17.6201 4.4925 17.6328 4.42773H17.6338L17.6348 4.41797C17.6421 4.37585 17.6492 4.33339 17.6553 4.29199C17.7891 3.37454 17.0071 2.67214 16.1836 2.67188H7.80566Z" stroke="#DE9615"/>
<path d="M4.96875 2.5H19.0312C19.0837 2.50004 19.1172 2.53956 19.1172 2.58203C19.1169 2.63411 19.0737 2.67188 19.0312 2.67188H18.8359C18.3747 2.67188 17.9957 3.02247 17.9502 3.47168L17.9463 3.53223C17.8446 5.2169 17.3151 6.85113 16.2627 8.12695L16.2607 8.12988C16.235 8.16146 16.2347 8.16175 16.209 8.19336C15.838 8.64728 15.4303 9.06992 14.9883 9.44824L14.9824 9.45312C14.8976 9.52802 14.8204 9.60401 14.749 9.67676C14.6667 9.76061 14.5808 9.84023 14.4893 9.91895L14.4863 9.9209C14.0174 10.3294 13.4068 10.9325 13.3242 11.79L13.3223 11.8027V11.8154C13.2849 12.6244 13.6202 13.1627 14.0674 13.667L14.0742 13.6748C14.3005 13.9198 14.5361 14.1524 14.7939 14.375V14.376C14.8566 14.4317 14.9184 14.4914 14.9834 14.5576C15.0822 14.6582 15.184 14.7517 15.291 14.8428V14.8438C15.6453 15.1506 15.9646 15.4894 16.2539 15.8613L16.2588 15.8682C16.2899 15.9068 16.3215 15.9456 16.3535 15.9854V15.9863C17.3028 17.1738 17.8269 18.7245 17.9277 20.2754C17.9643 20.8358 18.4156 21.3281 19.0273 21.3281C19.0843 21.3284 19.1172 21.3725 19.1172 21.4102C19.1169 21.4622 19.0737 21.5 19.0312 21.5H4.96875C4.91653 21.5 4.88307 21.4612 4.88281 21.4189C4.88281 21.3666 4.92614 21.3281 4.96875 21.3281H5.16406C5.64611 21.3281 6.03725 20.9451 6.05273 20.4668L6.05371 20.4678C6.15537 18.7831 6.68488 17.1489 7.7373 15.873L7.73926 15.8701L7.74023 15.8691L7.74121 15.8682V15.8672H7.74219V15.8662L7.74316 15.8652H7.74414V15.8643H7.74512L7.74609 15.8623V15.8613H7.74707V15.8604L7.74805 15.8594H7.74902V15.8584L7.75 15.8574V15.8564H7.75098V15.8555L7.75195 15.8545H7.75293V15.8535L7.75391 15.8525V15.8516H7.75488V15.8506L7.75586 15.8496H7.75684V15.8486H7.75781L7.75879 15.8467V15.8457H7.75977V15.8447L7.76074 15.8438H7.76172V15.8428L7.7627 15.8418V15.8408H7.76367V15.8398L7.76465 15.8389H7.76562V15.8379L7.7666 15.8369V15.8359H7.76758V15.835H7.76855V15.834L7.76953 15.833H7.77051L7.77148 15.8311V15.8301H7.77246V15.8291L7.77344 15.8281H7.77441V15.8262H7.77539V15.8252H7.77637V15.8242H7.77734V15.8232L7.77832 15.8223L7.7793 15.8213L7.78027 15.8203V15.8193H7.78125V15.8184L7.78223 15.8174H7.7832L7.78418 15.8154V15.8145H7.78516V15.8135L7.78613 15.8125H7.78711V15.8115L7.78809 15.8105V15.8096H7.78906V15.8086L7.79004 15.8076H7.79102V15.8066L7.79199 15.8057L7.79102 15.8047C8.1618 15.3511 8.56998 14.9298 9.01172 14.5518L9.01758 14.5469C9.10236 14.472 9.17965 14.396 9.25098 14.3232C9.33334 14.2394 9.4192 14.1598 9.51074 14.0811L9.51367 14.0791C9.98261 13.6706 10.5932 13.0675 10.6758 12.21L10.6777 12.1973V12.1846C10.7151 11.3756 10.3798 10.8373 9.93262 10.333L9.92578 10.3252C9.69939 10.08 9.46405 9.84674 9.20605 9.62402C9.14337 9.5683 9.08163 9.5086 9.0166 9.44238C8.91749 9.3415 8.81544 9.24765 8.70801 9.15625H8.70898C8.35469 8.84941 8.03543 8.51058 7.74609 8.13867L7.74121 8.13184L7.64551 8.01367H7.64648C6.69719 6.82625 6.17307 5.27554 6.07227 3.72461C6.03568 3.16437 5.58512 2.67214 4.97363 2.67188C4.9166 2.67188 4.8831 2.62845 4.88281 2.59082C4.88281 2.53848 4.92614 2.5 4.96875 2.5ZM12.6074 11.9688C12.3238 11.9688 12.0859 12.198 12.0859 12.4902V15.7578C12.0861 16.334 12.4503 16.8453 12.9922 17.0361V17.0371C13.1082 17.0819 13.2191 17.1257 13.3281 17.1719L13.3311 17.1729L13.4229 17.2109C13.4871 17.2377 13.5511 17.265 13.6152 17.292C13.7185 17.3354 13.822 17.378 13.9248 17.4209C14.0691 17.4811 14.2132 17.5421 14.3574 17.6025L15.3594 18.0205C15.4626 18.0635 15.5662 18.1069 15.6699 18.1504H15.6709L15.8623 18.2305C15.8901 18.2422 15.9176 18.2545 15.9463 18.2666L15.9492 18.2676C16.594 18.5348 17.1904 17.8768 16.8984 17.2646C16.6115 16.6631 16.2126 16.1261 15.7734 15.6592H15.7744C15.7092 15.5896 15.6462 15.5171 15.5811 15.4385L15.5732 15.4287L15.4004 15.2422C15.2232 15.0612 15.0373 14.8979 14.8809 14.7539C14.6696 14.5592 14.4593 14.3621 14.25 14.1641L14.1143 14.0371C13.669 13.6204 13.3364 13.151 13.1768 12.6201L13.1191 12.3887L13.0938 12.3027C13.0188 12.1087 12.8312 11.9688 12.6074 11.9688ZM11.3926 11.9688C11.1563 11.9688 10.943 12.1288 10.8848 12.3662C10.8787 12.3912 10.8735 12.4168 10.8672 12.4424C10.6337 13.3311 10.0313 13.9656 9.24023 14.6484L9.23828 14.6514C9.14733 14.731 9.06421 14.8121 8.9873 14.8916C8.89961 14.9808 8.81202 15.0624 8.71973 15.1396L8.71387 15.1455C8.23335 15.5621 7.69236 16.1565 7.31055 16.8008C7.09029 17.1726 7.13353 17.6095 7.4209 17.8984C7.69397 18.1727 8.10946 18.2364 8.48047 18.083C8.57919 18.0422 8.67815 18.0017 8.77734 17.9609C9.13699 17.8129 9.49601 17.6626 9.85449 17.5127C9.96114 17.4682 10.0681 17.4244 10.1748 17.3799H10.1758C10.2768 17.3376 10.3773 17.2942 10.4775 17.252C10.5405 17.2257 10.6041 17.2001 10.667 17.1738L10.6699 17.1729C10.6956 17.1619 10.7207 17.1499 10.7471 17.1387L10.748 17.1396C10.8009 17.1177 10.855 17.0966 10.9092 17.0762C11.489 16.8571 11.914 16.3105 11.9141 15.6543V12.4902C11.9139 12.2426 11.739 12.029 11.499 11.9795L11.3926 11.9688ZM7.80566 2.67188C6.9739 2.67207 6.23221 3.37498 6.34961 4.27344C6.35708 4.3306 6.36555 4.39444 6.375 4.46582L6.37598 4.47754L6.37891 4.48828C6.38551 4.52493 6.39164 4.56185 6.39844 4.59961L6.39941 4.60449C6.44786 4.86048 6.50946 5.10998 6.57812 5.35352C6.75997 5.99842 7.356 6.40623 7.99414 6.40625H15.9932C16.6413 6.40625 17.2385 5.98728 17.4199 5.33984C17.4909 5.08614 17.555 4.82577 17.6074 4.55566C17.6197 4.49335 17.6201 4.4925 17.6328 4.42773H17.6338L17.6348 4.41797C17.6421 4.37585 17.6492 4.33339 17.6553 4.29199C17.7891 3.37454 17.0071 2.67214 16.1836 2.67188H7.80566Z" stroke="#F7A717"/>
</svg>
