<svg width="28" height="28" viewBox="0 0 28 28" fill="none" xmlns="http://www.w3.org/2000/svg">
<path d="M5.00205 3.62629C5.3432 3.62272 5.68436 3.61915 6.03585 3.61548C6.4032 3.61777 6.77055 3.62006 7.14902 3.62242C7.5271 3.62134 7.90519 3.62025 8.29472 3.61914C9.09424 3.61747 9.89361 3.61989 10.6931 3.62518C11.7168 3.63163 12.74 3.62791 13.7637 3.62114C14.7415 3.61606 15.7193 3.61962 16.6971 3.62242C17.2481 3.61898 17.2481 3.61898 17.8103 3.61548C18.322 3.62083 18.322 3.62083 18.8441 3.62629C19.1442 3.62719 19.4442 3.62809 19.7534 3.62901C20.7522 3.81193 21.0897 4.10289 21.6866 4.90407C21.8324 5.54793 21.8324 5.54793 21.8352 6.26085C21.8388 6.52893 21.8424 6.79701 21.8462 7.07321C21.8438 7.36079 21.8415 7.64838 21.8391 7.94468C21.8408 8.39027 21.8408 8.39027 21.8424 8.84487C21.8432 9.47253 21.8411 10.1002 21.8363 10.7278C21.8302 11.6889 21.8362 12.6494 21.8436 13.6105C21.8428 14.2203 21.8414 14.8302 21.8391 15.4401C21.8414 15.7277 21.8438 16.0153 21.8462 16.3116C21.8425 16.5797 21.8389 16.8477 21.8352 17.124C21.8343 17.3592 21.8334 17.5945 21.8324 17.8369C21.6285 18.7372 21.2853 19.0662 20.5379 19.6121C19.7534 19.7558 19.7534 19.7558 18.8441 19.7585C18.3324 19.7639 18.3324 19.7639 17.8103 19.7693C17.443 19.767 17.0756 19.7647 16.6971 19.7624C16.319 19.7635 15.941 19.7645 15.5514 19.7657C14.7519 19.7673 13.9525 19.7649 13.153 19.7596C12.1294 19.7532 11.1061 19.7569 10.0825 19.7637C9.10463 19.7687 8.12688 19.7652 7.14902 19.7624C6.78168 19.7647 6.41433 19.767 6.03585 19.7693C5.6947 19.7658 5.35354 19.7622 5.00205 19.7585C4.70198 19.7576 4.40191 19.7567 4.09275 19.7558C3.09393 19.5729 2.75641 19.2819 2.1596 18.4807C2.01374 17.8369 2.01374 17.8369 2.01097 17.124C2.00554 16.7218 2.00554 16.7218 2 16.3116C2.00233 16.024 2.00465 15.7364 2.00705 15.4401C2.00595 15.1431 2.00485 14.846 2.00372 14.5399C2.00293 13.9123 2.00505 13.2846 2.00985 12.657C2.016 11.6959 2.00991 10.7354 2.00256 9.77434C2.00332 9.16445 2.00479 8.55456 2.00705 7.94468C2.00472 7.65709 2.0024 7.36951 2 7.07321C2.00362 6.80513 2.00724 6.53705 2.01097 6.26085C2.01189 6.02559 2.0128 5.79033 2.01374 5.54793C2.37909 3.93516 3.47371 3.63087 5.00205 3.62629ZM9.33863 8.86393C8.88513 9.7573 9.01035 10.7128 9.01557 11.6924C9.01446 11.901 9.01335 12.1095 9.01221 12.3244C8.98996 13.4594 8.98996 13.4594 9.33863 14.5209C10.6329 14.3504 11.5954 13.8517 12.7307 13.2304C12.9023 13.1372 13.0739 13.0441 13.2506 12.9481C13.6705 12.7198 14.0892 12.4892 14.5075 12.2581C14.5075 11.8847 14.5075 11.5114 14.5075 11.1267C13.8087 10.7474 13.1087 10.3707 12.4077 9.99532C12.2094 9.88739 12.0112 9.77947 11.807 9.66828C10.6404 9.03364 10.6404 9.03364 9.33863 8.86393Z" fill="#E6EEF3"/>
<path d="M24.4709 8.23096C25.2207 8.47693 25.2207 8.47693 25.8659 8.79319C25.8942 10.8144 25.9137 12.8355 25.9272 14.8568C25.9328 15.5445 25.9404 16.2322 25.9501 16.9199C25.9636 17.908 25.9699 18.8959 25.9749 19.8841C25.9806 20.1919 25.9864 20.4997 25.9923 20.8168C25.9925 21.2472 25.9925 21.2472 25.9926 21.6863C25.9951 21.9385 25.9975 22.1907 26.0001 22.4506C25.8162 23.3816 25.5094 23.7013 24.7499 24.2545C23.9485 24.3897 23.9485 24.3897 23.0098 24.3822C22.658 24.3821 22.3062 24.382 21.9437 24.3819C21.5612 24.3762 21.1786 24.3703 20.7961 24.3643C20.4036 24.3622 20.0111 24.3606 19.6187 24.3595C18.5875 24.3552 17.5566 24.3442 16.5255 24.3317C15.4727 24.3202 14.4198 24.3151 13.3669 24.3094C11.3023 24.2974 9.23791 24.2782 7.17346 24.2545C6.8596 23.6044 6.8596 23.6044 6.61548 22.849C6.79961 22.5706 6.98375 22.2923 7.17346 22.0056C7.86547 21.9042 7.86547 21.9042 8.74783 21.9099C9.07734 21.9099 9.40685 21.91 9.74634 21.9101C10.2821 21.9166 10.2821 21.9166 10.8287 21.9232C11.1933 21.9244 11.5578 21.9256 11.9334 21.9269C12.9031 21.9301 13.8726 21.9384 14.8422 21.9477C15.8315 21.9563 16.8207 21.9602 17.81 21.9644C19.7514 21.9735 21.6927 21.9879 23.634 22.0056C23.6321 21.8413 23.6302 21.6771 23.6283 21.5078C23.6099 19.8024 23.5972 18.097 23.588 16.3915C23.5838 15.7545 23.5781 15.1175 23.5708 14.4806C23.5607 13.5665 23.5559 12.6525 23.5522 11.7383C23.5479 11.4522 23.5436 11.1661 23.5391 10.8713C23.5391 10.6068 23.539 10.3424 23.5389 10.0699C23.5371 9.83641 23.5352 9.60294 23.5333 9.36239C23.5665 9.17456 23.5997 8.98672 23.634 8.79319C23.9102 8.60765 24.1864 8.42212 24.4709 8.23096Z" fill="#E6EEF3"/>
</svg>
