<svg width="28" height="29" viewBox="0 0 28 29" fill="none" xmlns="http://www.w3.org/2000/svg">
<path d="M5.00205 3.72846C5.3432 3.72489 5.68436 3.72133 6.03585 3.71765C6.4032 3.71994 6.77055 3.72223 7.14902 3.72459C7.5271 3.72351 7.90519 3.72243 8.29472 3.72131C9.09424 3.71965 9.89361 3.72206 10.6931 3.72735C11.7168 3.7338 12.74 3.73009 13.7637 3.72331C14.7415 3.71823 15.7193 3.72179 16.6971 3.72459C17.2481 3.72116 17.2481 3.72116 17.8103 3.71765C18.322 3.723 18.322 3.723 18.8441 3.72846C19.1442 3.72936 19.4442 3.73026 19.7534 3.73119C20.7522 3.9141 21.0897 4.20506 21.6866 5.00624C21.8324 5.65011 21.8324 5.65011 21.8352 6.36302C21.8388 6.6311 21.8424 6.89918 21.8462 7.17538C21.8438 7.46297 21.8415 7.75055 21.8391 8.04685C21.8408 8.49245 21.8408 8.49245 21.8424 8.94704C21.8432 9.57471 21.8411 10.2024 21.8363 10.83C21.8302 11.7911 21.8362 12.7516 21.8436 13.7126C21.8428 14.3225 21.8414 14.9324 21.8391 15.5423C21.8414 15.8299 21.8438 16.1175 21.8462 16.4138C21.8425 16.6818 21.8389 16.9499 21.8352 17.2261C21.8343 17.4614 21.8334 17.6966 21.8324 17.939C21.6285 18.8394 21.2853 19.1684 20.5379 19.7143C19.7534 19.858 19.7534 19.858 18.8441 19.8607C18.3324 19.866 18.3324 19.866 17.8103 19.8715C17.443 19.8692 17.0756 19.8669 16.6971 19.8646C16.319 19.8656 15.941 19.8667 15.5514 19.8678C14.7519 19.8695 13.9525 19.8671 13.153 19.8618C12.1294 19.8553 11.1061 19.8591 10.0825 19.8658C9.10463 19.8709 8.12688 19.8674 7.14902 19.8646C6.78168 19.8668 6.41433 19.8691 6.03585 19.8715C5.6947 19.8679 5.35354 19.8644 5.00205 19.8607C4.70198 19.8598 4.40191 19.8589 4.09275 19.858C3.09393 19.675 2.75641 19.3841 2.1596 18.5829C2.01374 17.939 2.01374 17.939 2.01097 17.2261C2.00554 16.824 2.00554 16.824 2 16.4138C2.00233 16.1262 2.00465 15.8386 2.00705 15.5423C2.00595 15.2452 2.00485 14.9482 2.00372 14.6421C2.00293 14.0144 2.00505 13.3868 2.00985 12.7591C2.016 11.7981 2.00991 10.8376 2.00256 9.87652C2.00332 9.26663 2.00479 8.65674 2.00705 8.04685C2.00472 7.75926 2.0024 7.47168 2 7.17538C2.00362 6.9073 2.00724 6.63923 2.01097 6.36302C2.01189 6.12776 2.0128 5.8925 2.01374 5.65011C2.37909 4.03733 3.47371 3.73304 5.00205 3.72846ZM9.33863 8.9661C8.88513 9.85947 9.01035 10.8149 9.01557 11.7946C9.01446 12.0031 9.01335 12.2117 9.01221 12.4266C8.98996 13.5616 8.98996 13.5616 9.33863 14.623C10.6329 14.4526 11.5954 13.9538 12.7307 13.3326C12.9023 13.2394 13.0739 13.1462 13.2506 13.0503C13.6705 12.8219 14.0892 12.5913 14.5075 12.3603C14.5075 11.9869 14.5075 11.6136 14.5075 11.2289C13.8087 10.8496 13.1087 10.4728 12.4077 10.0975C12.2094 9.98957 12.0112 9.88164 11.807 9.77045C10.6404 9.13581 10.6404 9.13581 9.33863 8.9661Z" fill="#063F5C"/>
<path d="M24.4708 8.33313C25.2206 8.57911 25.2206 8.57911 25.8658 8.89536C25.8941 10.9165 25.9136 12.9376 25.9271 14.959C25.9327 15.6467 25.9403 16.3344 25.95 17.022C25.9635 18.0101 25.9698 18.9981 25.9748 19.9862C25.9805 20.294 25.9863 20.6018 25.9922 20.919C25.9923 21.3494 25.9923 21.3494 25.9925 21.7885C25.9949 22.0407 25.9974 22.2929 26 22.5527C25.8161 23.4838 25.5092 23.8034 24.7498 24.3567C23.9483 24.4919 23.9483 24.4919 23.0096 24.4844C22.6578 24.4843 22.306 24.4842 21.9436 24.4841C21.561 24.4784 21.1785 24.4725 20.796 24.4665C20.4035 24.4644 20.011 24.4628 19.6186 24.4617C18.5874 24.4574 17.5565 24.4464 16.5254 24.4339C15.4725 24.4224 14.4196 24.4173 13.3667 24.4116C11.3022 24.3996 9.23779 24.3804 7.17334 24.3567C6.85947 23.7066 6.85947 23.7066 6.61536 22.9511C6.79949 22.6728 6.98363 22.3945 7.17334 22.1078C7.86534 22.0064 7.86534 22.0064 8.74771 22.012C9.07722 22.0121 9.40673 22.0122 9.74622 22.0122C10.282 22.0188 10.282 22.0188 10.8286 22.0254C11.1931 22.0266 11.5577 22.0278 11.9333 22.029C12.903 22.0323 13.8725 22.0405 14.8421 22.0499C15.8314 22.0585 16.8206 22.0623 17.8099 22.0666C19.7513 22.0756 21.6925 22.09 23.6338 22.1078C23.632 21.9435 23.6301 21.7792 23.6282 21.61C23.6097 19.9046 23.5971 18.1992 23.5879 16.4937C23.5836 15.8567 23.5779 15.2197 23.5707 14.5827C23.5606 13.6686 23.5558 12.7546 23.5521 11.8405C23.5478 11.5544 23.5435 11.2683 23.539 10.9735C23.5389 10.709 23.5389 10.4445 23.5388 10.172C23.537 9.93858 23.5351 9.70511 23.5332 9.46457C23.5664 9.27673 23.5996 9.08889 23.6338 8.89536C23.91 8.70982 24.1862 8.52429 24.4708 8.33313Z" fill="#063F5C"/>
</svg>
